<svg id="Grupo_24" data-name="Grupo 24" xmlns="http://www.w3.org/2000/svg" width="221.511" height="221.511" viewBox="0 0 221.511 221.511">
  <rect id="Rectángulo_96" data-name="Rectángulo 96" width="221.511" height="221.511" fill="#030202" opacity="0"/>
  <g id="Grupo_17" data-name="Grupo 17" transform="translate(10.26 62.067)">
    <path id="Trazado_33" data-name="Trazado 33" d="M-120.718,36.574s-3.77,1.495-8.148,6.33c-4.4,4.845-6.927,10.266-5.042,11.706.721.549,2.4.641,5.435-2.09a24.133,24.133,0,0,0,6.421-8.918c1.961-4.784,1.334-6.97,1.334-7.027m23.99,8.676c-4.87-2.491-8.428-5.542-12.134-7.443-3.534-1.811-5.822-2.565-8.674-2.188a8.55,8.55,0,0,0-1.18.3s1.479,5.017-4.372,13.466c-5.925,8.549-11.306,8.512-12.831,6.148-1.6-2.483.457-7.547,3.911-12.042,3.616-4.706,9.967-8.617,9.967-8.617s-2.03-1.235-7,1.582c-4.845,2.745-13.212,9.284-20.943,20.306s-9.276,17.1-10.393,21.871-.094,9.887,5.2,9.887,11.452-8.082,13.191-10.893c3.225-5.232,5.331-13.253.936-12.146-2.167.549-3.921,2.952-5.025,5.257a22.13,22.13,0,0,0-1.592,4.642,18.276,18.276,0,0,0-4.29,2.493,31.935,31.935,0,0,0-4.062,3.6s.01-3.817,3.055-10,8.623-9,11.782-9.262c2.85-.236,6.558,2.186,3.421,11.114S-150.161,93.1-159.9,93.248c-8.99.127-14.883-11.347-2.376-31.369,13.83-22.15,30.082-28.943,35.358-29.7s6.986,1.573,6.986,1.573A22.642,22.642,0,0,1-109.9,32.08c6.441.44,11.425,5,17.991,8.191-1.717,1.663-3.348,3.372-4.814,4.978M-67.8,37.785c-4.456,2.868-10.639,5.464-16.569,4.892-1.5,1.559-3.112,3.35-4.724,5.314,10.3,2.032,19.3-4.347,24.1-9.782A32.2,32.2,0,0,0-60.527,31.8,40.115,40.115,0,0,1-67.8,37.785m-13.687,29a1.953,1.953,0,0,0,.191-.422,1.035,1.035,0,0,0-.944-.9c-.983-.049-2.319.139-5.82,4.019A52.6,52.6,0,0,0-95.5,80.063c-2.01,3.675-2.817,6.408-1.664,7.1a1.686,1.686,0,0,0,1.213.129c.781-.191,1.666-.918,3.014-2.475.631-.735,1.334-1.768,2.17-2.919,2.307-3.161,8.129-13.109,9.284-15.115m-36.423,4.245c.586-1.532,1.326-4.536-.227-5.708-1.664-1.262-5.9,1.684-5.925,4.7-.023,3.081,2.987,4.48,3.716,4.679.412.105.555.094.752-.236a26.466,26.466,0,0,0,1.684-3.431m-3.2,5.613a12.811,12.811,0,0,1-2.919-1.862,9.473,9.473,0,0,1-2.2-2.657c-.053-.1-.117-.02-.182.066s-.32.313-2.587,3.636-5.73,10.192-2.579,11.36c2.012.74,5.363-2.784,7.193-5.122a42.669,42.669,0,0,0,3.372-5.14c.088-.189.008-.244-.1-.281m35.665,7.908c-.856,1.377-1.821,3.987.994,2.358,3.436-1.991,8.328-9.41,8.328-9.41h2.208A74.249,74.249,0,0,1-80.63,86.32c-3.483,3.858-7.727,7.363-10.716,7.019-3.495-.4-2.4-4.991-2.4-4.991s-5.015,5.324-8.461,4.941c-4.665-.514-3.245-6.283-3.245-6.283s-5.275,6.49-8.875,6.283c-5.64-.322-4.228-7.2-2.659-12.015.842-2.587,1.618-4.624,1.618-4.624s-.561.147-1.76.326c-.627.09-1.772.154-1.772.154a76.3,76.3,0,0,1-4.224,6.638c-1.879,2.5-9.862,11.083-14.568,9.368-4.339-1.59-2.909-8.246-.379-13.535,3.69-7.705,14.066-18.784,20.056-17.338,6.207,1.51.147,12.839.147,12.839s.006.039.066.063a2.512,2.512,0,0,0,1.2-.061,12.489,12.489,0,0,0,2.27-.674s6.236-13.074,13.13-21.628,20.636-23.285,26.042-19.728c1.323.875.719,3.9-1.057,7.559a23.281,23.281,0,0,1-2.436.637,19.69,19.69,0,0,0,2.211-5.247c.8-4.415-9.508,4.9-16.871,14.926A139.05,139.05,0,0,0-105.1,70.054a31.746,31.746,0,0,0,3.8-2.716A109.122,109.122,0,0,0-91.943,58.6a102.469,102.469,0,0,0,7.963-9.2,21.334,21.334,0,0,0,2.346-.248,101.97,101.97,0,0,1-8.785,10.4c-2.93,2.971-6.119,6.175-8.887,8.506a73.933,73.933,0,0,1-7.8,5.8s-6.455,12.991-2.946,13.826c2.063.492,6.132-5.781,6.132-5.781s5.308-8.107,8.508-11.755c4.364-4.972,8.127-7.842,11.88-7.9,2.188-.045,3.487,2.292,3.487,2.292l1.028-1.588h6.345S-84.5,83.044-85.446,84.552M-67.8,37.785c-4.456,2.868-10.639,5.464-16.569,4.892-1.5,1.559-3.112,3.35-4.724,5.314,10.3,2.032,19.3-4.347,24.1-9.782A32.2,32.2,0,0,0-60.527,31.8,40.115,40.115,0,0,1-67.8,37.785M-80.63,90.317h.733a1.594,1.594,0,0,1,.572.076.515.515,0,0,1,.336.531.437.437,0,0,1-.217.414.706.706,0,0,1-.3.113.475.475,0,0,1,.363.2.607.607,0,0,1,.117.33v.154c0,.053,0,.1,0,.15.008.066.008.1.02.109l.014.031h-.35v-.02l-.014-.021-.006-.074V92.15c0-.246-.063-.408-.2-.481a.815.815,0,0,0-.412-.072h-.3v.832h-.363Zm1.272.645a.329.329,0,0,0-.141-.315.961.961,0,0,0-.449-.078h-.318v.77h.342a1.224,1.224,0,0,0,.35-.045.35.35,0,0,0,.217-.332m1.424.418a1.848,1.848,0,0,1-.559,1.362,1.838,1.838,0,0,1-1.364.567,1.844,1.844,0,0,1-1.368-.567,1.865,1.865,0,0,1-.557-1.362,1.831,1.831,0,0,1,.568-1.358,1.833,1.833,0,0,1,1.356-.565,1.866,1.866,0,0,1,1.364.565,1.824,1.824,0,0,1,.559,1.358m-1.922-1.657a1.63,1.63,0,0,0-1.174.483,1.6,1.6,0,0,0-.481,1.174,1.649,1.649,0,0,0,.481,1.188,1.63,1.63,0,0,0,1.174.479,1.641,1.641,0,0,0,1.17-.479A1.627,1.627,0,0,0-78.2,91.38a1.578,1.578,0,0,0-.483-1.174,1.614,1.614,0,0,0-1.17-.483M-156.83,47.692h-6.037l-3.4,5.519h6.031Zm-28.546,19.081c2.565-3.518,9.637-15.844,9.637-15.844a1.04,1.04,0,0,0-.944-.9c-.979-.045-2.6.283-5.855,4.347a76.176,76.176,0,0,0-7.592,10.659c-2.01,3.671-2.887,6.261-1.737,6.961a1.641,1.641,0,0,0,1.211.129c.756-.188,1.739-.942,3.091-2.493.631-.737,1.348-1.711,2.188-2.86M-217.744,50.13c-1.664-1.262-5.908,1.684-5.927,4.7-.023,3.087,3.831,3.968,4.327,3.989a.532.532,0,0,0,.61-.246,28.632,28.632,0,0,0,1.213-2.725c.588-1.537,1.326-4.54-.223-5.714m-2.512,10.628a13.923,13.923,0,0,1-3.27-1.5,6.853,6.853,0,0,1-2.337-2.583c-.055-.1-.117-.023-.184.07s-.395.51-2.661,3.839-5.623,10.137-2.475,11.3c2.016.742,5.394-2.79,7.222-5.132a59.455,59.455,0,0,0,3.808-5.708c.09-.2.008-.252-.1-.285m49.276,2.028h2.211s-11.067,16-17.323,15.275c-3.491-.4-2.46-4.716-2.46-4.716s-4.913,5.744-9.4,4.6c-4.089-1.049-1.459-7.842-1.459-7.842-.461.184-9.3,10.159-15.508,7.768-6.5-2.5-3.134-10.848-1.895-13.351,1.041-2.122,2.2-4.185,2.2-4.185s-1,.289-1.614.428-1.563.326-1.563.326-3.073,5-4.949,7.49S-232.6,79.653-237.3,77.943s-3.546-8.289-.9-13.517c4.286-8.49,14.457-18.913,20.577-17.352,6.189,1.579,1.071,11.62,1.071,11.62s1.231.16,4.185-1.854c4.251-2.9,9.846-10.7,15.92-9.793,2.85.432,5.507,3.358,1.874,8.92-1.16,1.778-3.108,3.376-4.607,1.805-.928-.979-.121-2.77.856-4a3.842,3.842,0,0,1,3.28-1.5s1-2.3-1.545-2.256c-2.069.041-7.293,4.855-10.243,9.719-2.708,4.472-6.8,12.077-2.686,13.732,3.778,1.522,10.956-7.008,14.283-11.472s10.893-14.607,17.252-15.017a4.233,4.233,0,0,1,3.493,1.848l.736-1.162h6.345s-11.966,20-12.9,21.5c-.736,1.19-1.711,3.854,1,2.356s8.338-8.742,8.338-8.742m-3.448,32.025a26.4,26.4,0,0,0-15.986-4.653,9.794,9.794,0,0,0-7.791,4.23c-2.432-4.23-7.228-6.826-14.642-6.763-11.976.141-23.859,5.665-33.268,5.665-9.033,0-15.617-5.665-15.4-15.744.377-17.661,15.3-33.581,26.458-40.754,6.414-4.118,11.784-5.339,15.3-4.952,2.561.291,5.648,3.251,3.7,7.607-2.85,6.392-6.8,5.861-6.652,2.805a5.045,5.045,0,0,1,2.391-3.911,4.718,4.718,0,0,1,2.325-.576c.561-.481.992-3.972-3.6-2.815s-10.122,5.664-15.4,11.477-13.48,16.85-15.5,28.415c-.944,5.37-.309,15.144,12.4,15.025,10.776-.092,26.678-7.187,41.286-7.064a27.869,27.869,0,0,1,14.455,3.954c3.79,2.344,8.326,5.736,9.93,8.055" transform="translate(261.52 -31.77)" fill="red"/>
    <g id="Grupo_16" data-name="Grupo 16" transform="translate(13.458 78.515)">
      <path id="Trazado_34" data-name="Trazado 34" d="M-239.616,85.368h-2.333V75.25l-4.39,9.9h-1.625L-252.3,75.5v9.866h-2.331V72.357h3.233l4.3,9.6,4.247-9.6h3.235Z" transform="translate(254.631 -71.581)" fill="red"/>
      <path id="Trazado_35" data-name="Trazado 35" d="M-234.977,82.039v1.827a2.282,2.282,0,0,1-.94.162,2.887,2.887,0,0,1-1.453-.363,1.778,1.778,0,0,1-.86-1.084,3.426,3.426,0,0,1-1.536,1.213,5.614,5.614,0,0,1-2.114.379,5.587,5.587,0,0,1-1.979-.344,3.275,3.275,0,0,1-1.454-1.03,2.577,2.577,0,0,1-.543-1.645,2.7,2.7,0,0,1,1.418-2.421,7.912,7.912,0,0,1,4.093-.869h1.916a1.849,1.849,0,0,0-.688-1.489,2.816,2.816,0,0,0-1.807-.533,5.252,5.252,0,0,0-1.543.244,4.844,4.844,0,0,0-1.491.75l-1.157-1.7a5.591,5.591,0,0,1,1.987-.985,8.666,8.666,0,0,1,2.313-.315,5.08,5.08,0,0,1,3.4,1.047,3.639,3.639,0,0,1,1.229,2.927v3.559a.7.7,0,0,0,.207.559.8.8,0,0,0,.551.182A1.3,1.3,0,0,0-234.977,82.039Zm-4.507-.4a2.6,2.6,0,0,0,1.037-2.061h-1.842a5.625,5.625,0,0,0-2.5.406,1.2,1.2,0,0,0-.75,1.057,1.056,1.056,0,0,0,.5.895,2.356,2.356,0,0,0,1.381.354A3.707,3.707,0,0,0-239.484,81.643Z" transform="translate(263 -70.169)" fill="red"/>
      <path id="Trazado_36" data-name="Trazado 36" d="M-229.237,74.062V82.99a4.014,4.014,0,0,1-.686,2.321,4.428,4.428,0,0,1-1.9,1.543,6.668,6.668,0,0,1-2.764.541,10.118,10.118,0,0,1-4.337-.92l.8-1.932a10.546,10.546,0,0,0,1.635.613,6.709,6.709,0,0,0,1.78.217,3.9,3.9,0,0,0,2.3-.633,2.075,2.075,0,0,0,.895-1.807v-.776a4.2,4.2,0,0,1-3.253,1.319,5.337,5.337,0,0,1-2.6-.623,4.5,4.5,0,0,1-1.772-1.717,4.8,4.8,0,0,1-.631-2.448,4.891,4.891,0,0,1,.631-2.465,4.592,4.592,0,0,1,1.772-1.754,5.22,5.22,0,0,1,2.6-.641,4.167,4.167,0,0,1,3.343,1.463V74.062Zm-3.1,6.65a2.566,2.566,0,0,0,.858-2.024,2.623,2.623,0,0,0-.858-2.042,3.1,3.1,0,0,0-2.159-.778,3.221,3.221,0,0,0-1.508.354,2.657,2.657,0,0,0-1.067.994,2.785,2.785,0,0,0-.389,1.471,2.607,2.607,0,0,0,.842,2.016,3.027,3.027,0,0,0,2.122.766A3.138,3.138,0,0,0-232.336,80.713Z" transform="translate(268.803 -70.179)" fill="red"/>
      <path id="Trazado_37" data-name="Trazado 37" d="M-232.686,74.273a1.291,1.291,0,0,1-.4-.975,1.275,1.275,0,0,1,.4-.959,1.407,1.407,0,0,1,1.014-.379,1.4,1.4,0,0,1,1.012.379,1.274,1.274,0,0,1,.4.959,1.291,1.291,0,0,1-.4.975,1.413,1.413,0,0,1-1.012.379A1.415,1.415,0,0,1-232.686,74.273Zm-.143,1.571h2.311v9.9h-2.311Z" transform="translate(275.179 -71.96)" fill="red"/>
      <path id="Trazado_38" data-name="Trazado 38" d="M-219.846,82.039v1.827a2.288,2.288,0,0,1-.94.162,2.9,2.9,0,0,1-1.455-.363,1.775,1.775,0,0,1-.858-1.084,3.442,3.442,0,0,1-1.537,1.213,5.613,5.613,0,0,1-2.114.379,5.576,5.576,0,0,1-1.977-.344,3.271,3.271,0,0,1-1.455-1.03,2.575,2.575,0,0,1-.541-1.645,2.7,2.7,0,0,1,1.418-2.421,7.907,7.907,0,0,1,4.093-.869h1.915a1.843,1.843,0,0,0-.688-1.489,2.814,2.814,0,0,0-1.805-.533,5.265,5.265,0,0,0-1.545.244,4.866,4.866,0,0,0-1.491.75l-1.157-1.7A5.607,5.607,0,0,1-228,74.153a8.676,8.676,0,0,1,2.313-.315,5.077,5.077,0,0,1,3.4,1.047,3.639,3.639,0,0,1,1.229,2.927v3.559a.7.7,0,0,0,.207.559.8.8,0,0,0,.551.182A1.314,1.314,0,0,0-219.846,82.039Zm-4.509-.4a2.6,2.6,0,0,0,1.039-2.061h-1.844a5.61,5.61,0,0,0-2.5.406,1.2,1.2,0,0,0-.75,1.057,1.054,1.054,0,0,0,.5.895,2.36,2.36,0,0,0,1.381.354A3.707,3.707,0,0,0-224.355,81.643Z" transform="translate(277.429 -70.169)" fill="red"/>
      <path id="Trazado_39" data-name="Trazado 39" d="M-211.1,72.062V85.649h-2.186V84.311a4.3,4.3,0,0,1-3.487,1.573,5.01,5.01,0,0,1-2.63-.688,4.782,4.782,0,0,1-1.788-1.87,5.419,5.419,0,0,1-.643-2.63,5.422,5.422,0,0,1,.643-2.628,4.783,4.783,0,0,1,1.788-1.87,5.01,5.01,0,0,1,2.63-.688,4.236,4.236,0,0,1,3.36,1.428V72.062ZM-214.863,83.4a2.87,2.87,0,0,0,1.112-1.092,3.16,3.16,0,0,0,.406-1.61,3.153,3.153,0,0,0-.406-1.608A2.857,2.857,0,0,0-214.863,78a3.244,3.244,0,0,0-1.59-.389,3.139,3.139,0,0,0-1.581.4,2.805,2.805,0,0,0-1.084,1.1,3.247,3.247,0,0,0-.389,1.588,3.257,3.257,0,0,0,.389,1.592,2.8,2.8,0,0,0,1.084,1.1,3.12,3.12,0,0,0,1.581.4A3.223,3.223,0,0,0-214.863,83.4Z" transform="translate(285.904 -71.863)" fill="red"/>
      <path id="Trazado_40" data-name="Trazado 40" d="M-204.81,79.863h-8.057a2.813,2.813,0,0,0,1.119,1.707,3.617,3.617,0,0,0,2.168.623,4.508,4.508,0,0,0,1.59-.26,4.4,4.4,0,0,0,1.319-.822l1.282,1.571a4.684,4.684,0,0,1-1.707,1.094,6.806,6.806,0,0,1-2.5.424,6.326,6.326,0,0,1-3.009-.678,4.771,4.771,0,0,1-1.952-1.86,5.242,5.242,0,0,1-.678-2.649,5.328,5.328,0,0,1,.651-2.61,4.845,4.845,0,0,1,1.842-1.877,5.419,5.419,0,0,1,2.784-.7,5.338,5.338,0,0,1,2.774.7,4.8,4.8,0,0,1,1.815,1.909,5.621,5.621,0,0,1,.631,2.663A3.639,3.639,0,0,1-204.81,79.863Zm-7.037-3.405a2.905,2.905,0,0,0-1.02,1.67h5.818a2.691,2.691,0,0,0-.977-1.651,2.987,2.987,0,0,0-1.932-.625A2.962,2.962,0,0,0-211.846,76.458Z" transform="translate(292.2 -70.179)" fill="red"/>
      <path id="Trazado_41" data-name="Trazado 41" d="M-193.735,72.357l-5.06,13.011h-2.944l-5.06-13.011h2.6l3.974,10.626,3.958-10.626Z" transform="translate(300.244 -71.581)" fill="red"/>
      <path id="Trazado_42" data-name="Trazado 42" d="M-189.79,79.863h-8.059a2.816,2.816,0,0,0,1.121,1.707,3.611,3.611,0,0,0,2.167.623,4.5,4.5,0,0,0,1.59-.26,4.4,4.4,0,0,0,1.321-.822l1.282,1.571a4.7,4.7,0,0,1-1.707,1.094,6.821,6.821,0,0,1-2.5.424,6.314,6.314,0,0,1-3.009-.678,4.771,4.771,0,0,1-1.952-1.86,5.222,5.222,0,0,1-.678-2.649,5.306,5.306,0,0,1,.651-2.61,4.832,4.832,0,0,1,1.842-1.877,5.407,5.407,0,0,1,2.782-.7,5.328,5.328,0,0,1,2.774.7,4.807,4.807,0,0,1,1.817,1.909,5.621,5.621,0,0,1,.631,2.663A3.774,3.774,0,0,1-189.79,79.863Zm-7.039-3.405a2.925,2.925,0,0,0-1.02,1.67h5.818a2.691,2.691,0,0,0-.977-1.651,2.98,2.98,0,0,0-1.932-.625A2.97,2.97,0,0,0-196.828,76.458Z" transform="translate(306.523 -70.179)" fill="red"/>
      <path id="Trazado_43" data-name="Trazado 43" d="M-187.482,73.983v2.149a6.216,6.216,0,0,0-1.03-.09,3.454,3.454,0,0,0-2.2.66,2.428,2.428,0,0,0-.84,2.032v5.187h-2.313v-9.9h2.188V75.41a3.074,3.074,0,0,1,1.4-1.164,4.634,4.634,0,0,1,1.815-.371A4.34,4.34,0,0,1-187.482,73.983Z" transform="translate(312.582 -70.135)" fill="red"/>
      <path id="Trazado_44" data-name="Trazado 44" d="M-179.513,72.062V85.649H-181.7V84.311a4.3,4.3,0,0,1-3.485,1.573,5,5,0,0,1-2.63-.688,4.8,4.8,0,0,1-1.789-1.87,5.418,5.418,0,0,1-.641-2.63,5.421,5.421,0,0,1,.641-2.628,4.8,4.8,0,0,1,1.789-1.87,5,5,0,0,1,2.63-.688,4.237,4.237,0,0,1,3.358,1.428V72.062ZM-183.272,83.4a2.844,2.844,0,0,0,1.112-1.092,3.159,3.159,0,0,0,.406-1.61,3.152,3.152,0,0,0-.406-1.608A2.831,2.831,0,0,0-183.272,78a3.247,3.247,0,0,0-1.588-.389,3.146,3.146,0,0,0-1.582.4,2.818,2.818,0,0,0-1.084,1.1,3.226,3.226,0,0,0-.389,1.588,3.236,3.236,0,0,0,.389,1.592,2.808,2.808,0,0,0,1.084,1.1,3.127,3.127,0,0,0,1.582.4A3.225,3.225,0,0,0-183.272,83.4Z" transform="translate(316.031 -71.863)" fill="red"/>
      <path id="Trazado_45" data-name="Trazado 45" d="M-172.876,82.039v1.827a2.272,2.272,0,0,1-.938.162,2.9,2.9,0,0,1-1.455-.363,1.768,1.768,0,0,1-.858-1.084,3.447,3.447,0,0,1-1.536,1.213,5.628,5.628,0,0,1-2.114.379,5.579,5.579,0,0,1-1.979-.344,3.293,3.293,0,0,1-1.455-1.03,2.587,2.587,0,0,1-.541-1.645,2.7,2.7,0,0,1,1.418-2.421,7.907,7.907,0,0,1,4.093-.869h1.915a1.842,1.842,0,0,0-.686-1.489,2.819,2.819,0,0,0-1.807-.533,5.275,5.275,0,0,0-1.545.244,4.834,4.834,0,0,0-1.489.75l-1.158-1.7a5.607,5.607,0,0,1,1.987-.985,8.687,8.687,0,0,1,2.313-.315,5.08,5.08,0,0,1,3.4,1.047,3.639,3.639,0,0,1,1.229,2.927v3.559a.693.693,0,0,0,.209.559.8.8,0,0,0,.551.182A1.284,1.284,0,0,0-172.876,82.039Zm-4.507-.4a2.6,2.6,0,0,0,1.039-2.061h-1.842a5.635,5.635,0,0,0-2.5.406,1.2,1.2,0,0,0-.75,1.057,1.056,1.056,0,0,0,.5.895,2.36,2.36,0,0,0,1.381.354A3.706,3.706,0,0,0-177.383,81.643Z" transform="translate(322.222 -70.169)" fill="red"/>
      <path id="Trazado_46" data-name="Trazado 46" d="M-166.945,72.062V85.649h-2.186V84.311a4.294,4.294,0,0,1-3.485,1.573,5.006,5.006,0,0,1-2.63-.688,4.815,4.815,0,0,1-1.789-1.87,5.418,5.418,0,0,1-.641-2.63,5.421,5.421,0,0,1,.641-2.628,4.815,4.815,0,0,1,1.789-1.87,5.006,5.006,0,0,1,2.63-.688,4.238,4.238,0,0,1,3.36,1.428V72.062ZM-170.7,83.4a2.849,2.849,0,0,0,1.114-1.092,3.179,3.179,0,0,0,.406-1.61,3.172,3.172,0,0,0-.406-1.608A2.836,2.836,0,0,0-170.7,78a3.242,3.242,0,0,0-1.588-.389,3.151,3.151,0,0,0-1.582.4,2.8,2.8,0,0,0-1.082,1.1,3.227,3.227,0,0,0-.391,1.588,3.237,3.237,0,0,0,.391,1.592,2.791,2.791,0,0,0,1.082,1.1,3.132,3.132,0,0,0,1.582.4A3.22,3.22,0,0,0-170.7,83.4Z" transform="translate(328.016 -71.863)" fill="red"/>
      <path id="Trazado_47" data-name="Trazado 47" d="M-165.781,72.826h-1.1v2.708h-.6V72.826h-1.09v-.537h2.794Zm4.255,2.708h-.594v-2.5l-1.069,2.448h-.41l-1.059-2.4v2.458h-.576V72.289h.819l1.028,2.305,1.028-2.305h.834Z" transform="translate(336.694 -71.646)" fill="red"/>
    </g>
  </g>
</svg>
