<svg id="Grupo_25" data-name="Grupo 25" xmlns="http://www.w3.org/2000/svg" width="221.511" height="221.511" viewBox="0 0 221.511 221.511">
  <rect id="Rectángulo_97" data-name="Rectángulo 97" width="221.511" height="221.511" fill="#030202" opacity="0"/>
  <g id="Grupo_23" data-name="Grupo 23" transform="translate(43.036 58.248)">
    <g id="Grupo_22" data-name="Grupo 22" transform="translate(0)">
      <g id="Grupo_21" data-name="Grupo 21">
        <path id="Trazado_57" data-name="Trazado 57" d="M-42.09,58.9a2.658,2.658,0,0,1,2.657,2.655,2.664,2.664,0,0,1-2.657,2.661,2.665,2.665,0,0,1-2.661-2.661A2.659,2.659,0,0,1-42.09,58.9Zm2.067,2.655a2.073,2.073,0,0,0-2.067-2.073,2.072,2.072,0,0,0-2.071,2.073,2.072,2.072,0,0,0,2.071,2.073A2.073,2.073,0,0,0-40.023,61.56Z" transform="translate(174.872 -2.076)" fill="#0e207e"/>
        <path id="Trazado_58" data-name="Trazado 58" d="M-41.583,62.572h-.7l-.705-1.192h-.334v1.192h-.629v-3.1h.863a1.448,1.448,0,0,1,.893.229.844.844,0,0,1,.285.7.862.862,0,0,1-.139.488,1.021,1.021,0,0,1-.406.336C-42.007,61.92-41.716,62.369-41.583,62.572Zm-.949-2.155a.359.359,0,0,0-.147-.318.862.862,0,0,0-.449-.088h-.19v.836h.2a.732.732,0,0,0,.438-.107A.376.376,0,0,0-42.533,60.418Z" transform="translate(175.639 -1.535)" fill="#0e207e"/>
        <path id="Trazado_59" data-name="Trazado 59" d="M10.761,91.422l3.923-.672a.7.7,0,0,0,.551-.912L7.584,66.216l-.348-1.078a.7.7,0,0,0-.785-.481l-11.2,1.836a.712.712,0,0,0-.6.711l.565,26.112A.711.711,0,0,0-3.956,94l5.437-.912a.715.715,0,0,0,.59-.66l.285-5.507a.708.708,0,0,1,.6-.664l3.175-.477a.7.7,0,0,1,.742.4l.17.367L9.2,91.168a.713.713,0,0,0,.762.393ZM-48.58,63.649l-.514-.5a.66.66,0,0,0-.551-.191l-8.619.977a.683.683,0,0,0-.6.76l4.276,34.477.07.59a.688.688,0,0,0,.76.6l7.992-.983a.672.672,0,0,0,.59-.748L-46.99,81.642a.292.292,0,0,1,.508-.229l14.322,16.01a.68.68,0,0,0,.635.215l5.392-1a.688.688,0,0,0,.553-.754l-5.2-41.266-.1-.8a.681.681,0,0,0-.754-.588L-40.056,54.3a.68.68,0,0,0-.59.766L-38.269,73a.285.285,0,0,1-.356.316l-.537-.463ZM18.644,90.984a.685.685,0,0,1-.234.729L-6.574,111.733-21.513,123.7a.761.761,0,0,1-.277.133l-25.422,5.7a.688.688,0,0,1-.41-.039l-41.582-16.781-3.3-1.33-11.663-4.71a.694.694,0,0,1-.424-.551l-6.756-48.782a.691.691,0,0,1,.608-.785l14.089-1.6,3.4-.379,7.32-.83a.7.7,0,0,0,.361-1.231c-1.407-1.172-2.606-2.268-3.626-3.282-.647-.641-1.217-1.256-1.723-1.827a20.266,20.266,0,0,1-3.575-5.3,1.46,1.46,0,0,1,.742-1.889c1.786-.817,6.058-2.661,15.564-6.337a30.8,30.8,0,0,1,6.521-1.768,23.26,23.26,0,0,1,6.08-.147A22.693,22.693,0,0,1-51.014,39.94a55.569,55.569,0,0,1,6.82,10.374.687.687,0,0,0,.715.367l15.14-2.192a.691.691,0,0,1,.787.615l.145,1.375a.7.7,0,0,0,.729.619l13.988-.74,3.182-.164,9.67-.514a.7.7,0,0,1,.723.59l1.559,9.772a.7.7,0,0,0,.717.59l6.382-.274a.69.69,0,0,1,.7.508ZM-1.891,63.124a.7.7,0,0,0,.653-.8l-1.153-8.76a.715.715,0,0,0-.754-.619L-27.774,54.68a.719.719,0,0,0-.658.8l1.153,8.653a.713.713,0,0,0,.768.613l.963-.082,3.606-.3a.709.709,0,0,1,.766.652l2.46,29.685a.741.741,0,0,0,.449.6.722.722,0,0,0,.33.043l9.627-.912a.707.707,0,0,0,.647-.735L-8.754,64.3a.712.712,0,0,1,.658-.735Zm-40.1,3.5c.481.664,1.317.088.975-.774-2.231-4.874-5.191-11.225-7.516-16.047a38.713,38.713,0,0,0-3.556-6.2c-5.642-7.656-13.5-10.966-22.113-8.393-5.425,1.623-10.6,4.089-15.883,6.179-1.1.432-1.412,1-.412,1.954,2.815,2.655,5.451,5.519,8.424,7.992,4.271,3.554,9.057,6.261,14.875,6,4.278-.191,8.563-.59,12.808-1.147,3.569-.471,6.244.633,8.176,3.63C-45.064,61.608-43.251,64.917-41.989,66.628Zm-15.586,33.729a.72.72,0,0,0,.565-.946L-69.888,62.635a.7.7,0,0,0-.717-.475l-8.156.52a.72.72,0,0,0-.664.645l-.584,5.806v.02l-3.3,32.918a.716.716,0,0,0,.754.785l.774-.045,5.132-.316a.716.716,0,0,0,.666-.6L-74.362,92l5.456-.748.3.768,3.587,9a.713.713,0,0,0,.785.445l.576-.1Zm-26.94-33.051a.689.689,0,0,0,.576-.774l-1.231-8.664a.685.685,0,0,0-.772-.582l-21.054,2.878a.689.689,0,0,0-.59.772l.045.324,5.677,42.78a.685.685,0,0,0,.754.588l1.35-.133v-.006l6.871-.692a.692.692,0,0,0,.615-.746L-93.794,85.8a.69.69,0,0,1,.615-.746l8.625-.9a.69.69,0,0,0,.61-.779l-.926-6.47a.688.688,0,0,0-.768-.584L-94,77.352a.691.691,0,0,1-.766-.6l-.912-7.023a.69.69,0,0,1,.576-.766Z" transform="translate(111.357 -27.893)" fill="#0e207e"/>
        <path id="Trazado_60" data-name="Trazado 60" d="M-36.788,73.053a.7.7,0,0,1-.551.912l-3.923.672-2.714-5.058-1,.184-.17-.367a.7.7,0,0,0-.742-.4l-3.175.477a.708.708,0,0,0-.6.664l-.285,5.507a.715.715,0,0,1-.59.66l-5.437.912a.711.711,0,0,1-.824-.684l1.387-25.414,10.977-1.686ZM-45.667,61.46c.221-.912-.565-1.5-1.539-.658-.914.779-2.878.379-2.878.379-1.344-.379-1.567.7-.381,1.694,0,0,1.135,2.167,2.827,1.735a2.32,2.32,0,0,0,1.9-2.927A1.784,1.784,0,0,0-45.667,61.46Z" transform="translate(163.38 -11.109)" fill="#fff"/>
        <path id="Trazado_61" data-name="Trazado 61" d="M-47.034,64.8l-.8.139a.713.713,0,0,1-.762-.393l-2.155-4.62,1-.184Z" transform="translate(169.152 -1.275)" fill="#ccc"/>
        <path id="Trazado_62" data-name="Trazado 62" d="M-44.511,49.119l.348,1.078L-55.14,51.884-56.527,77.3l-.565-26.112a.712.712,0,0,1,.6-.711l11.2-1.836A.7.7,0,0,1-44.511,49.119Z" transform="translate(163.104 -11.875)" fill="#ccc"/>
        <path id="Trazado_63" data-name="Trazado 63" d="M-48.46,56.332c-.424,1.076-2.256,3.511-4.722,1.192-1.186-.99-.963-2.073.381-1.694,0,0,1.963.4,2.878-.379.975-.844,1.76-.254,1.539.658A1.783,1.783,0,0,1-48.46,56.332Z" transform="translate(166.096 -5.758)" fill="#0e207e"/>
        <path id="Trazado_64" data-name="Trazado 64" d="M-48.837,55.7a2.32,2.32,0,0,1-1.895,2.927c-1.692.432-2.827-1.735-2.827-1.735C-51.094,59.214-49.261,56.779-48.837,55.7Z" transform="translate(166.473 -5.129)" fill="#ccc"/>
        <path id="Trazado_65" data-name="Trazado 65" d="M-42.458,51.716a.7.7,0,0,1-.653.8l-6.2.443a.712.712,0,0,0-.658.735l1.09,29.408a.707.707,0,0,1-.647.735l-9.627.912a.722.722,0,0,1-.33-.043V84.7l-1.565-30.281H-62.4a.709.709,0,0,0-.766-.653l-3.606.3-.025-.3-1.338-8.744,24.522-2.055Z" transform="translate(152.576 -17.285)" fill="#fff"/>
        <path id="Trazado_66" data-name="Trazado 66" d="M-42.866,43.259l-24.522,2.055,1.338,8.744.025.3-.963.082a.713.713,0,0,1-.768-.613l-1.153-8.653a.719.719,0,0,1,.658-.8L-43.62,42.64A.715.715,0,0,1-42.866,43.259Z" transform="translate(151.831 -17.588)" fill="#ccc"/>
        <path id="Trazado_67" data-name="Trazado 67" d="M-30.714,84.867-15.775,72.9c-8.512,14.285-25.307,17.612-28.394,18.208-16.358,3.632-25.954,5.216-41.823-2.934s-15.717-15.621-15.717-15.621l3.3,1.33A31.459,31.459,0,0,0-83.418,86.217c10.186,3.9,9.78,5.824,26.594,4.448a.688.688,0,0,0,.41.039L-30.991,85A.76.76,0,0,0-30.714,84.867Z" transform="translate(120.558 10.939)" fill="#fff"/>
        <path id="Trazado_68" data-name="Trazado 68" d="M-28.88,52.117l-3.182.164s-12.624-15.369-25.16-19.007-27.739.613-27.739.613a23.26,23.26,0,0,0-6.08.147v-.006s13.335-4.7,23.375-4.171c6.572.356,15.16.723,26.307,10.186C-37.709,43.218-29.826,50.677-28.88,52.117Z" transform="translate(130.729 -29.816)" fill="#fff"/>
        <path id="Trazado_69" data-name="Trazado 69" d="M-35.03,51.311l-13.988.74a.7.7,0,0,1-.729-.619l-.145-1.375a.691.691,0,0,0-.787-.615l-15.14,2.192a.687.687,0,0,1-.715-.367,55.569,55.569,0,0,0-6.82-10.374A22.693,22.693,0,0,0-87.93,32.918s15.2-4.251,27.739-.613S-35.03,51.311-35.03,51.311Z" transform="translate(133.697 -28.846)" fill="#ff6b00"/>
        <path id="Trazado_70" data-name="Trazado 70" d="M-62.287,79.1v.008a.741.741,0,0,1-.449-.6L-65.2,48.822h1.344Z" transform="translate(155.376 -11.691)" fill="#ccc"/>
        <path id="Trazado_71" data-name="Trazado 71" d="M-51.812,84.761a.688.688,0,0,1-.553.754l-5.392,1a.68.68,0,0,1-.635-.215l-14.322-16.01a.292.292,0,0,0-.508.229L-71.408,87.5a.672.672,0,0,1-.59.748l-7.992.983a.688.688,0,0,1-.76-.6l-.07-.59-3.028-34.212,9.037-1.311,9.418,9.2.4.393a.232.232,0,0,0,.139.07l.856.735a.259.259,0,0,0,.426-.221l-1.819-18.868,8.383-.342Z" transform="translate(137.588 -16.771)" fill="#fff"/>
        <path id="Trazado_72" data-name="Trazado 72" d="M-65.391,43.375l.1.8-8.383.342,1.819,18.868a.259.259,0,0,1-.426.221l-.856-.735a.285.285,0,0,0,.356-.316l-2.378-17.93a.68.68,0,0,1,.59-.766l8.424-1.071A.681.681,0,0,1-65.391,43.375Z" transform="translate(145.869 -17.45)" fill="#ccc"/>
        <path id="Trazado_73" data-name="Trazado 73" d="M-74.4,52.828l.537.463a.232.232,0,0,1-.139-.07Z" transform="translate(146.597 -7.871)" fill="#0e207e"/>
        <path id="Trazado_74" data-name="Trazado 74" d="M-50.9,64.625c.342.862-.494,1.438-.975.774-1.262-1.711-3.075-5.021-4.222-6.808-1.932-3-4.607-4.1-8.176-3.63-4.245.557-8.529.955-12.808,1.147-5.818.26-10.6-2.448-14.875-6-2.973-2.473-5.609-5.337-8.424-7.992-1-.951-.684-1.522.412-1.954,5.286-2.09,10.458-4.556,15.883-6.179,8.613-2.573,16.471.737,22.113,8.393a38.713,38.713,0,0,1,3.556,6.2C-56.094,53.4-53.135,59.751-50.9,64.625ZM-64.079,51.855S-73.87,49.6-76.9,47.641s-9.918-5.876-16.922-3.563c1.9,1.364,5.755,3.264,8.131,4.988S-78.744,56.721-64.079,51.855Z" transform="translate(121.247 -26.664)" fill="#369638"/>
        <path id="Trazado_75" data-name="Trazado 75" d="M-100.018,73.234l41.582,16.781c-16.815,1.375-16.408-.545-26.594-4.448A31.459,31.459,0,0,1-100.018,73.234Z" transform="translate(122.169 11.588)" fill="#ff6b00"/>
        <path id="Trazado_76" data-name="Trazado 76" d="M-74.2,48.458l-9.037,1.311,3.028,34.212L-84.486,49.5a.683.683,0,0,1,.6-.76l8.619-.977a.66.66,0,0,1,.551.191Z" transform="translate(136.977 -12.702)" fill="#ccc"/>
        <path id="Trazado_77" data-name="Trazado 77" d="M-71.445,84.608a.72.72,0,0,1-.565.946l-6.078,1.014-3.137-9.874-1.811.526-.3-.768L-88.8,77.2l-1.623,9.893a.716.716,0,0,1-.666.6l-5.132.316,1.774-33.659v-.02l.584-5.806a.72.72,0,0,1,.664-.645l8.156-.52a.7.7,0,0,1,.717.475ZM-84.253,69.558-86.574,63.6a.585.585,0,0,0-1.121.115l-1.172,6.49.316-.045v1.008l4.3-.774-.324-.793Z" transform="translate(125.792 -13.09)" fill="#fff"/>
        <path id="Trazado_78" data-name="Trazado 78" d="M-80.4,42.639c3.03,1.958,12.822,4.214,12.822,4.214-14.666,4.866-19.235-1.065-21.613-2.79s-6.23-3.624-8.131-4.988C-90.315,36.762-83.427,40.679-80.4,42.639Z" transform="translate(124.743 -21.662)" fill="#2b792d"/>
        <path id="Trazado_79" data-name="Trazado 79" d="M-87.66,62.373l3.137,9.874-.576.1a.713.713,0,0,1-.785-.445l-3.587-9Z" transform="translate(132.227 1.231)" fill="#ccc"/>
        <path id="Trazado_80" data-name="Trazado 80" d="M-90.162,55.851l2.321,5.959-.324.043-3.974.559-.316.045,1.172-6.49A.585.585,0,0,1-90.162,55.851Z" transform="translate(129.381 -5.342)" fill="#0e207e"/>
        <path id="Trazado_81" data-name="Trazado 81" d="M-88.32,58.742l.323.792-4.3.773V59.3Z" transform="translate(129.535 -2.231)" fill="#ccc"/>
        <path id="Trazado_82" data-name="Trazado 82" d="M-97,83.852l3.3-32.918-1.774,33.659-.774.045A.716.716,0,0,1-97,83.852Z" transform="translate(125.045 -9.677)" fill="#ccc"/>
        <path id="Trazado_83" data-name="Trazado 83" d="M-85.776,54.111a.689.689,0,0,1-.576.774l-10.585,1.661a.69.69,0,0,0-.576.766l.912,7.023a.691.691,0,0,0,.766.6l8.359-1.028a.688.688,0,0,1,.768.584l.926,6.47a.69.69,0,0,1-.61.779l-8.625.9a.69.69,0,0,0-.615.746l1.522,17.246a.692.692,0,0,1-.615.746l-6.871.692-7.781-43.229-.045-.324a.689.689,0,0,1,.59-.772l21.054-2.878a.685.685,0,0,1,.772.582Z" transform="translate(113.195 -15.471)" fill="#fff"/>
        <path id="Trazado_84" data-name="Trazado 84" d="M-94.409,44.023a.7.7,0,0,1-.361,1.231l-7.32.83a28.966,28.966,0,0,1,4.056-5.343C-97.016,41.755-95.816,42.851-94.409,44.023Z" transform="translate(120.193 -19.397)" fill="#ff6b00"/>
        <path id="Trazado_85" data-name="Trazado 85" d="M-96.377,41.633a28.966,28.966,0,0,0-4.056,5.343l-3.4.379a63.722,63.722,0,0,1,5.73-7.549C-97.594,40.376-97.024,40.992-96.377,41.633Z" transform="translate(118.534 -20.289)" fill="#fff"/>
        <path id="Trazado_86" data-name="Trazado 86" d="M-109.4,46.9l7.781,43.229v.006l-1.35.133a.685.685,0,0,1-.754-.588Z" transform="translate(113.22 -13.529)" fill="#ccc"/>
      </g>
    </g>
  </g>
</svg>
