<svg id="Capa_1" data-name="Capa 1" xmlns="http://www.w3.org/2000/svg" viewBox="0 0 187.59 109.8"><defs><style>.cls-1{fill:#382614;fill-rule:evenodd;}</style></defs><title>flechaaa</title><path class="cls-1" d="M128.41,115.43v-8.2c2.1-.06,4.18-.13,6.24-.17,1.66,0,2.7.69,6.43.5h13.19c5.34.78,31.56-.23,33,1.1.76,6-.55,2.35,2,6,.8,1.14.58.73.62,1.5-1,0-.34-.68-1.87-.59-.81,0-1.61.17-2.46.21a18,18,0,0,1-4.59-.18c-2.26-.64-10.42.37-11.81.1-1.81-.35-2.36-4.17-4.89-1.35-1.82,2-5.58,1-8.9,1.1-1.54,0-3.12.14-4.66.16-2,0-2.21-1.24-4.41-.61-3.67,1-5.22-.32-6.47-.3-.53,0-1.43.43-2.21.47a86,86,0,0,1-9.23.21Zm0-99.4V14.66c.4-.22.26-.25.55.55-.21.64-.37.83-.55.82Zm0-5.15c1.85.12,1.53.39,2.76.71l1-1.16c1,4.41,6,2.48,10.37,2.65,1.3.05,8.38.37,9.37-.37s-.2-.31.86-.94c.43-.27.87-.18,1.39-.33-.25-.64-1.3-.83-1.95.76-1.11.05-2.9.5-2.05-1.43.45-1,1.59-1,2.37-1.59V7.91a15.22,15.22,0,0,0-3.45-.27c-2.32.05-1.76.44-3.33,1-1.32-2.1-.44-1-3.7-1.24l-9.4.06a19.27,19.27,0,0,0-2.41.1,8.14,8.14,0,0,0-1.82.4v3ZM175,15.58c-.2-2.21.12-1.84,1.13-2.42l-.37-4c1.15-.47.31.18,2.48-.13,1.23-.18,1.18.82,1.56,2.1.66-.46.47-.31.87-1a9,9,0,0,0,.38-.95c1.69-.34,1.1,1,2.83.63.72-.15,6.15-2,4.45,3-.45,1.29-.64.21-.32,2.29.15,1,.7,1.15-.06,1.73-.12.09-6.25.1-6.89,0-2.21-.29-2.27,1-4.63-.52a5.11,5.11,0,0,0-1.43-.67ZM192.91,61c.54-.52,2.1-.4,1.68-3.66-.34-2.73-1.32-.17-1.38-4.3a16.17,16.17,0,0,1,.27-4.2c.58.24.17-.11.59.55.64,1,.69,2.41,1.69,2.75l-1.09-5.7c-1.1.09-1.33,1.38-1.43-1.5-.22-5.92.59-7.42.71-9,.17-2.23-.44-1.54-.47-4.28,0-3.58.2-6.07.38-9.3s-.43-2.09-.87-3.82c-.47-1.9.39-2.64-.13-4.3-1-1.8-1.89-.65-2.65-1.3l-.08-1a2.91,2.91,0,0,1,3.38-.38c.11.52-.18,1.62-.07,3.16,2.47.24,1.51-2.41,4-.63l.35,3.82-2.92-.44c0,4.32,1,.83,2.84,6.29a7,7,0,0,1,.27,4.14c-.43,2.26,0,3.06.23,5.27-.48,1-1,1.24-1,2.66,0,1.68.53,1.12.81,2.73l-.3,15c-.3,1.25-.82,1-1.42,1.63-.83.92,0,0-.64,1.23-.45.85-.17.28-.75.94,0,1.74.43,2.41,0,4.07-.3,1.27-.59.49-.38,4.42,1.53-.57,1.25-2.73,1.36-3.28.23-1.28.14-.62.82-1.61a4.85,4.85,0,0,0,.75-1.49c.94,5.24-1.55,6.32-.11,10l.18.4s.06.12.08.19c-3.71,5.12-.76,4.16-3.43,7.07,0,2.2.19,2.48-.3,4.34a6.08,6.08,0,0,0-.29,3.76c3.19,1.85,3.73-1.45,3.64,4.79,0,.43,0,1.39,0,1.76-.2,2-.88,1.63-2.07,2.35-1,.62-.82.87-1.44,1.73.76,2.75,1.88,2.09,2.53,2a24.51,24.51,0,0,1,1,8.34c0,.66-.14,3.66-.21,4.38a2.19,2.19,0,0,1-.53,1.41c-.44.47.12-.13-.45.35l-.73.66c0,.09.09.31.1.25a4.4,4.4,0,0,1,.3,2.72c-.22.71-1.26,1.43-1.9,1.07-1-.58-.32-5.62-.57-7.59-.37-2.94-1.21-1.15-.85-6.71.12-1.88,0-6.63,0-8.73-.07-3.54.46-4.57.37-7.76s.13-5.42.16-8.21c0-2.57-.19-5.51-.15-8.39S192.85,63.83,192.91,61Zm-133.5,52.1c-2.75.8-1.29-.48-3.22,0a8.5,8.5,0,0,1-3.61.4l-.4.64a2.59,2.59,0,0,1-.51.53v-7.77a9.85,9.85,0,0,1,1.1.17c3.19.69,7.1-.28,10.21.44-.11,2.06-.14.56-.24,1.2a2.21,2.21,0,0,0-.05.25l0,.91.9-.14c2.12-.8,1.47.26,2.67,2.42.68,0,1.27-.14,1.83-.14,1.06,0,.84.52,1.61.63,1.1.16,1.59-1.55,2.35-2.26a5.23,5.23,0,0,1-1.43,4.14c-.89,1-2.82.86-4,.73-3.2-.38-2.34.4-6-.64-1-.29-.72-.21-1.17-1.51Zm69-103.89v4h0c-.72-2.63-.71-3.55,0-4Zm0,5.47-.2.11c-.82.38.15,1.11-2.19,0-.79-.37-.54,0-1.09-.8l0-1.52c.78-.69.92-.15,1.5-1.16-.3-1.08-1.1-1.16-1.93-1.28-.33,1.13-.21,2.21-1.1,1.92-1.33-.44-.39-1.93,0-2.53-.75.14-1.28-2.66-4.12-.61-1.55,1.11-3.7.26-5.22,1.45.35,2,.15.31,2.84,0a11,11,0,0,0,1.95-.16l.86-.74c.73-.72,1.5,0,2.15,1l.57,1.13a5.35,5.35,0,0,0-1.16,2.05,7.63,7.63,0,0,1-5.88-.72c-1.07,3.05-.13,1.82,1.3,2.89,1,.78,3,.52,4.29.38,3-.31,2.74.18,6.26-.42.61-.1.91.32,1.17.32V14.66Zm0,92.57v8.2l-.31,0c-1.43-.11-.43-.83-2-.61-5.1.71-4,.1-4.83-3-1-.41-1.63-.87-2.92-.26-2.12,1-1.6-.14-2.71.13-1.34.31-.28,1.32-2.57.61-1.58-.5-2-.33-2.8,1.09-1.29,2.34-3.71,1.31-5.73,1.39-2.37.1-11.2.26-13.2-.35-1.23-.37-1.84.4-3.17.27-2.46-.26-3.73.12-6.62-.38-4-.68-3.06,1.88-5.48-1.57-.8-1.13-1.41-1.3-1.19-3.45,1.3,0,.51,1.94,3.06,1.28s1.27,1.54,4,.7c1.47-5.35-2.08-4,3.2-4.26l9.78-.1c4.23-.19,8.71.47,13.09.2,4.54-.28,8.53.35,12.87.33,2.51,0,5-.1,7.53-.18ZM51.67,15.91V12.14c1.22.08,1.45.87,2.62-.68,3.21-4.28,5.08.58,5.36.81.87-.86.33-1.85,1.36-2.32l4.79.51c3.47,2.27.36-.1,4,.47l7.54-.69c1.32-.05,1.63-.75,2.25-.89.43-.09,1.42.23,2.4.1,2.46-.31,1.56,2.26,4.38.28,1.09-.76,3.9-.38,4.84,0,1.42.59,3.07-.17,4.59.55l-.72.51c-.55.19-.78-.16-1.84.6-.21,1.93-.52,3.1.8,3.57,1.65.59,2.88-1.11,4-3.27.49-.94.71-2,1.7-1.29-.33,1.9-.69.73-1.05,3a4.83,4.83,0,0,0,2.09,1.72c.91.26.6.14,1.13-.59l.85-1.39-.15-.2-1.07-1.5a6.32,6.32,0,0,1,4.1-.1c-.3,1.09-.45-.09-.59,2.13,3,1.86,2.93.79,3.17,2.59a2.7,2.7,0,0,1-2.36.41c-1.21-.22-1.17.09-2.26.18C99.9,17,93.31,16.3,89,16.42Zm0,98.74c-1.16.86-2.87.27-4.84.36s-3.9-.32-6-.32c-4.18,0-8.43.1-12.65.15-2.24,0-3.92-.48-5.78-.52-2,0-4.44,0-6.44.12-3.93.3-6-3.4-5.16-9,.22-1.52.27-.4.53-2-1-2.12-.59-1.38-.57-4.4,0-3.67.07-2.31.59-4.82,0-1.77-1,1.14-.53-6.58.16-2.36.51-.7.42-3.33-.05-1.67-.23-2.16-.16-4.09,1.49-.24.25.73,2.11.4l-.06-3.11c.77-1,.95-.39.81-2.77-1.4-1.57-1.24.55-1.38-2.46-1.9.06-1.46.68-1.5-5.7l.4-16.18A24.19,24.19,0,0,0,11.8,47c-.08-1.8-.46-1.44,0-3.49l.91,1.72C14.47,44.25,15.19,41,14,40c-1.17-.63-1.31,0-2.2.5-.85-3.66.33-18.58.25-24.45-.08-5.44.17-2.28,1-4.95.46-1.54-.19-1,.7-2.06A4.54,4.54,0,0,1,15,7.84l7.61-.41c.09.61.67,1.94-1.12,2.86-1.14.59-1-.43-2.49-.42-2.43,0-4.32-.49-5.4,1.25a2.4,2.4,0,0,0,.39.59c.81,1,1.2.8,2.14.7.23.71.31,1,.56,1.63a11.69,11.69,0,0,1,2.13-.32c1.09.09.43.46,1.65.2s2.75-.12,3.78-1c1.24-1.11,2.54-.69,3.7-.54,1.81.23,2.26-.35,2.7,2.51C27.32,16.34,21,15.35,17,16l-.69,1.81c-.94-1-.78-3.06-2.76-1.15.16,2.84,1.07.17,2.66,5.12.52,1.61-.08,24.36-.22,27.63C15.85,52,16,56,16,58.89c0,9.13-.2,18.44-.79,27.48-.11-1.59-.34-2.61-1.87-2.49-2,.16-1.39,1.74-1.29,4.46,2.33,1.45.47.74,2.5.54,1.47-.14.43-.2.87.37.06.14.22,8.31,0,7.5,0-.07-.09.15-.12.19l-.23.37s-.45.52-.48.53c-.61.36-.71-.25-1.42.4.09,2.93.73.07,1.94,2.89,1.07,2.47-.23,1.25-.7,4,2.08,2.61,3.21,1.51,5.27,1.62a19.79,19.79,0,0,1,2.72.5c.85.12.87-.21,1.29-.18.81,0,.28.21.86.74,2.27,2,4.44-2.48,8.38-1.08,1.23.44.58,2.34,1,3.76,1-.68.35-1.22.68-3.55,1.53-.3,2.41.25,3.88.44l.7,2.45,2.44-1.69a2.82,2.82,0,0,1,.68-1,52.44,52.44,0,0,1,9.38-.23v7.77Zm0-102.51a4.13,4.13,0,0,0-.68,0c-1.28.18-2.53.8-3.78.74C45,12.81,47,11,40.33,11.53c-3.68.3-1.35-.58-5.56.5-1.75.45-1.7-1.14-3.46,2.6,0,.06-.08.17-.11.26,1.31,1.42.45.32,1.83.22,4.31-.31,2.79.63,4.3.93A13.68,13.68,0,0,0,40,16c3-.13,7-.52,9.88-.07l1.84,0Z" transform="translate(-10.62 -7.3)"/><path class="cls-1" d="M168.92,60.39c0,1.72-2.46,6.76-4.1,8.37-.53.52-1.3.34-2.2.29-1.57-.09-3.14-.22-4.75-.27-10.11-.34-19.54-.61-29.71-.47-3.29,0-6.52.27-9.77.35-2.08.06-9.54.44-11.67.87-2.77.55-5.52-.16-7,.7.11.81,2,3.76,2.53,4.63.27.45.29.66.55,1.18a7.8,7.8,0,0,1,.54,1.34l1.84,4.74c.14.27.08.06.2.32a2.35,2.35,0,0,1,.17.62c.14.51.12.24.28.64a22.38,22.38,0,0,0,.59,3,4.21,4.21,0,0,1-.08,3.2L105.62,91c-.16.35.12.12-.26.54l-.93.91a5.2,5.2,0,0,1-.67.26c-1.51.43-2.87-.88-3.88-1.18L96,89.94c-1.56-.87-3.21-1.41-4.94-2.18L73.87,79.9c-.85-.42-1.68-.75-2.45-1.13-1.58-.77-3.33-1.39-5-2.29-.46-.25-.58-.37-1.07-.62a135.39,135.39,0,0,1-12.49-7.2,22.06,22.06,0,0,1-4.08-3.11c-.43-.85-1.28-1.59-1.42-2.73-.17-1.41.38-2.13.6-3.25.37-1.87.41-1.84,1.34-2.63l3.21-2.74c2.35-2,4.11-2.4,6.11-3.8,2.38-1.66,7.27-4.19,8.72-5.26s3.43-2.08,4.93-3c.41-.26.73-.55,1.16-.81l5.08-2.84c1.41-.93,3.85-1.87,5.23-2.83,1-.69,6.75-3.43,8-3.91,1.88-.72,3.56-1.94,6-1.9,1.3,0,1.82.39,1.93,2s.4,1.44.83,2.48l.08.18c.08.21,0,0,.11.28.87,2.47-.21,4.19-1.55,5.71-.7.79-1.26,1.24-2,1.95-2.32,2.2-5.73,5.81-7.26,8.58-.53,1-.9.93-.45,2.91.9.43,7.63.6,8.37.37A3.79,3.79,0,0,1,98.92,54l12.6-.62c3.56,0,7.94-.58,11.09-.64l25.09-1.35a25.35,25.35,0,0,0,2.64-.22c3.43-.09,8-.69,11.1-.74,1.79,0,3.76,1.25,4.34,1.47a3.59,3.59,0,0,1,2.78,3A37.14,37.14,0,0,1,168.92,60.39Z" transform="translate(-10.62 -7.3)"/></svg>