<svg xmlns="http://www.w3.org/2000/svg" viewBox="0 0 141.11 194.42"><defs><style>.cls-1{fill:#004a98;}.cls-1,.cls-2,.cls-3,.cls-4{fill-rule:evenodd;}.cls-2{fill:#fff;}.cls-3{fill:#004a96;}.cls-4{fill:#eb0029;}</style></defs><g id="Capa_2" data-name="Capa 2"><g id="Capa_1-2" data-name="Capa 1"><g id="Capa_1-3" data-name="Capa_1"><path class="cls-1" d="M122.93,155.09a2.77,2.77,0,1,0,2.77,2.77A2.77,2.77,0,0,0,122.93,155.09Z"/><path class="cls-2" d="M120.44,120.44a70.55,70.55,0,1,1,0-99.77A70.55,70.55,0,0,1,120.44,120.44Z"/><path class="cls-3" d="M126.19,34.48a46.25,46.25,0,0,1-17,51.14c-20,14.74-49.21,14.77-89.5,27.47a66.3,66.3,0,0,0,106.5-78.61Z"/><path class="cls-4" d="M110.33,17.47a66.32,66.32,0,0,0-93.14,92.44,137.66,137.66,0,0,0,93.14-92.44Z"/><path class="cls-1" d="M66.83,173.87v0c0-.23,0-.61-.11-1a12.74,12.74,0,0,0-.47-2.14A11.8,11.8,0,0,0,55,162.11a9.33,9.33,0,0,0-1.58.11A12,12,0,0,0,43.08,176,11.78,11.78,0,0,0,55,186.44a14.57,14.57,0,0,0,1.58-.1,12.15,12.15,0,0,0,8.22-4.4.71.71,0,0,0,.15-.51.55.55,0,0,0-.27-.41,25,25,0,0,0-2.33-1.22l-.46-.22a1,1,0,0,0-.5-.16.63.63,0,0,0-.48.28A7.63,7.63,0,0,1,56,182.37a7.43,7.43,0,0,1-1,.07,8,8,0,0,1-7.46-5.14l0-.08.07,0a9.52,9.52,0,0,1,3.93-.79,7.56,7.56,0,0,1,.83,0c.65.06,1.29.13,2,.23a29.25,29.25,0,0,0,4.09.34,20.31,20.31,0,0,0,2.81-.2c3.72-.72,5.19-1.75,5.19-1.77.52-.38.49-.66.46-1.17Zm-4.19-1.51a13,13,0,0,1-2.49.49,12,12,0,0,1-1.69.1c-1.09,0-2.26-.08-3.39-.17h0c-1.05-.08-2.05-.15-3-.15a16.25,16.25,0,0,0-1.91.11,15.09,15.09,0,0,0-3.19.78v-.14a8.18,8.18,0,0,1,7-7.12,8.52,8.52,0,0,1,1-.06,8.41,8.41,0,0,1,7.74,6.06l0,.09Z"/><path class="cls-1" d="M124.92,163.48a.57.57,0,0,0-.56-.57h-3.07a.57.57,0,0,0-.56.57V185.3a.56.56,0,0,0,.56.56h3.07a.56.56,0,0,0,.56-.56Z"/><path class="cls-1" d="M122.82,155.13a2.77,2.77,0,1,0,2.76,2.77A2.77,2.77,0,0,0,122.82,155.13Z"/><path class="cls-1" d="M82.06,186.44h.59a11.54,11.54,0,0,0,8.26-3.4,12.39,12.39,0,0,0-8.67-20.94,11.89,11.89,0,0,0-11.59,9,27.8,27.8,0,0,0-.5,5.59v17.12a.57.57,0,0,0,.57.56h3a.56.56,0,0,0,.56-.56V183.07l.16.15a12,12,0,0,0,7.57,3.22Zm.14-20.2A7.87,7.87,0,0,1,90,174.39c0,4.61-3.23,8.07-7.53,8.07a8.07,8.07,0,0,1-5.63-2.19,7.84,7.84,0,0,1-2.34-5.75,8,8,0,0,1,7.75-8.28Z"/><path class="cls-1" d="M27.37,186.44H28a11.54,11.54,0,0,0,8.26-3.4,12.2,12.2,0,0,0,3.42-8.64,12.07,12.07,0,0,0-12.09-12.3,11.91,11.91,0,0,0-11.6,9,28,28,0,0,0-.49,5.59v17.12a.56.56,0,0,0,.56.56h3a.57.57,0,0,0,.57-.56V183.07l.15.15a12,12,0,0,0,7.57,3.22Zm.13-20.2a7.87,7.87,0,0,1,7.75,8.15c0,4.61-3.23,8.07-7.52,8.07a8.06,8.06,0,0,1-5.64-2.19,7.82,7.82,0,0,1-2.36-5.75,8.07,8.07,0,0,1,7.77-8.28Z"/><path class="cls-1" d="M97.27,182.61a13.15,13.15,0,0,0,9.31,3.82h.11c6.48-.05,9.39-3.59,9.39-7.08,0-4.83-4.56-6.16-6-6.45l-1.38-.27c-1.13-.21-2.31-.44-3.37-.74-.74-.21-3.17-1-3.17-2.83,0-2,2.21-3.08,4.3-3.08a7.43,7.43,0,0,1,5.1,1.75,1,1,0,0,0,.61.24.89.89,0,0,0,.55-.2,21.91,21.91,0,0,0,2.09-1.81.7.7,0,0,0,.21-.48.82.82,0,0,0-.31-.56,12.26,12.26,0,0,0-8.32-2.81h0c-4.86,0-8.53,3.12-8.53,7.27,0,3.28,2.69,5.62,7.58,6.58l3.06.58c2,.37,3.15,1.44,3.11,2.94s-1.82,3-4.77,3a9.2,9.2,0,0,1-6.29-2.54l0,0a.7.7,0,0,0-.48-.25.74.74,0,0,0-.45.2c-.18.15-2.23,1.76-2.44,2a.48.48,0,0,0-.14.34.69.69,0,0,0,.24.46Z"/><path class="cls-1" d="M129.27,181.34a2.55,2.55,0,1,1-2.51,2.54A2.52,2.52,0,0,1,129.27,181.34Zm0,4.65a2.09,2.09,0,1,0-2.08-2.09A2.07,2.07,0,0,0,129.27,186Zm.38-1.74a.77.77,0,0,0,.55-.79.79.79,0,0,0-.82-.83h-1v2.53h.5v-.88h.17l.63.88h.61Zm-.25-1.13a.35.35,0,0,1,0,.69h-.48v-.67h.5Z"/></g></g></g></svg>