<svg xmlns="http://www.w3.org/2000/svg" width="222" height="222" viewBox="0 0 222 222">
  <g id="Grupo_38" data-name="Grupo 38" transform="translate(-2474.636 -1117)">
    <rect id="Rect치ngulo_101" data-name="Rect치ngulo 101" width="222" height="222" transform="translate(2474.636 1117)" fill="#030202" opacity="0"/>
    <g id="Grupo_37" data-name="Grupo 37" transform="translate(2491.116 1193.441)">
      <g id="Grupo_33" data-name="Grupo 33" transform="translate(0 0.76)">
        <g id="Grupo_32" data-name="Grupo 32">
          <path id="Trazado_151" data-name="Trazado 151" d="M28.825,41.87v3.818H23.187Z" transform="translate(5.731 -37.093)" fill="#018837"/>
          <path id="Trazado_152" data-name="Trazado 152" d="M92.806,45.688H87.187V41.87Z" transform="translate(67.038 -37.093)" fill="#018837"/>
          <path id="Trazado_153" data-name="Trazado 153" d="M103.64,59.874l10.925,18.874H98.236a165.049,165.049,0,0,0-1.39-32.384L88.407,41h26.158Z" transform="translate(68.207 -37.926)" fill="#018837"/>
          <path id="Trazado_154" data-name="Trazado 154" d="M29.3,46.365a166.905,166.905,0,0,0-1.39,32.384H11.577L22.5,59.874,11.577,41H37.735Z" transform="translate(-5.39 -37.926)" fill="#018837"/>
          <path id="Trazado_155" data-name="Trazado 155" d="M158.032,45.62a131.34,131.34,0,0,1,0,37.063H22.544s-3.113-18.541,0-37.063Z" transform="translate(3.79 -33.5)" fill="#018837"/>
          <path id="Trazado_156" data-name="Trazado 156" d="M30.933,80.253a166.906,166.906,0,0,1,1.39-32.384L40.762,42.5H14.6L25.529,61.378,14.6,80.253ZM42.974,48.025V44.207l-5.639,3.818Zm125.287,0-5.619-3.818v3.818Zm1.977,40.588a131.34,131.34,0,0,0,0-37.063H34.751c-3.113,18.522,0,37.063,0,37.063Zm4.621-8.36h16.329L180.263,61.378,191.189,42.5H165.031l8.439,5.365A165.049,165.049,0,0,1,174.859,80.253Zm9.887-19.227,12.707,22.027h-23.28s-.411,4.914-1.018,8.634H32.382a63.936,63.936,0,0,1-1.155-8.3H8.417L21.378,61.241,8.417,39.43H46.146v8.439h113.3V39.43h38Z" transform="translate(-8.417 -39.43)" fill="#fff"/>
        </g>
      </g>
      <g id="Grupo_34" data-name="Grupo 34" transform="translate(48.946)">
        <path id="Trazado_157" data-name="Trazado 157" d="M38.91,39.921c-.01.313-.157.576-.5.566a.966.966,0,0,1-.46-.137,2.925,2.925,0,0,0-1.173-.251,2.45,2.45,0,0,0-2.2,2.647,2.331,2.331,0,0,0,2.24,2.459,2.444,2.444,0,0,0,1.277-.345.88.88,0,0,1,.462-.166c.292,0,.46.323.46.607-.012.511-1.2,1.014-2.314,1a3.329,3.329,0,0,1-3.285-3.516,3.582,3.582,0,0,1,3.444-3.747,4.448,4.448,0,0,1,1.527.294C38.669,39.461,38.91,39.618,38.91,39.921Z" transform="translate(-33.416 -39.042)" fill="#018837"/>
        <path id="Trazado_158" data-name="Trazado 158" d="M37.655,39.079c.114,0,.3,0,.46.01,1.308,0,2.071-.02,2.584-.02.4,0,.566.2.566.47a.461.461,0,0,1-.325.525c-.46.02-1.559.01-2.418.01h-.46v1l-.01.985V42.2h.419c.313,0,1.3-.022,1.694-.031s.65.063.64.5c0,.282-.127.491-.544.491-.462,0-1.811.01-2.23.01-.01.209-.01.45-.01.67,0,.429-.012.9-.012,1.329.5.01,1.32,0,2.387-.01.209-.012.347-.022.513-.022.325,0,.46.2.46.513,0,.282-.1.544-.585.554-.7.022-1.56,0-2.815,0-.858,0-1.079-.082-1.11-.658V45.16c0-.053.043-1.339.043-3,0-.848.01-1.686.01-2.543C36.932,39.216,37.226,39.079,37.655,39.079Z" transform="translate(-30.119 -39.016)" fill="#018837"/>
        <path id="Trazado_159" data-name="Trazado 159" d="M40.6,39.089c.262-.01.544-.02.91-.02.231,0,.491,0,.785.01A2.2,2.2,0,0,1,44.686,41.3,2.035,2.035,0,0,1,43.3,43.286c.493.691.995,1.361,1.486,2.021a.632.632,0,0,1,.159.386.583.583,0,0,1-.607.535c-.241.01-.356-.116-.5-.294-.5-.742-1.026-1.537-1.611-2.353h-1.3c0,.564.01,1.517.01,2.019,0,.325-.094.6-.491.619-.5.01-.67-.159-.66-.628.031-2.009.012-2.753.012-4.762,0-.335-.022-.722-.022-1.057C39.777,39.31,40.112,39.11,40.6,39.089Zm.315.995.01,2.512h1.046c.86,0,1.551-.345,1.56-1.286.01-.807-.544-1.245-1.486-1.245C41.766,40.064,41.191,40.073,40.918,40.083Z" transform="translate(-27.322 -39.016)" fill="#018837"/>
        <path id="Trazado_160" data-name="Trazado 160" d="M42.669,39.6c0-.335.366-.544.67-.544a.49.49,0,0,1,.523.366c.116.313.253.67.4,1.077l1.592,4.166c.116-.251.231-.607.335-.869l1.654-4.364a.542.542,0,0,1,.542-.366c.272,0,.64.209.64.523a1.63,1.63,0,0,1-.159.513c-.178.472-.439,1.1-.858,2.1-.094.219-.166.47-.585,1.443-.272.65-.566,1.351-.879,2.093a.724.724,0,0,1-.732.493c-.441,0-.566-.241-.722-.607-.535-1.382-1-2.387-2.271-5.515A1.978,1.978,0,0,1,42.669,39.6Z" transform="translate(-24.552 -39.031)" fill="#018837"/>
        <path id="Trazado_161" data-name="Trazado 161" d="M47.25,39.079c.114,0,.3,0,.46.01,1.308,0,2.071-.02,2.584-.02.4,0,.566.2.566.47a.461.461,0,0,1-.325.525c-.46.02-1.558.01-2.418.01h-.46v1l-.01.985V42.2h.419c.313,0,1.3-.022,1.694-.031s.65.063.64.5c0,.282-.127.491-.544.491-.462,0-1.811.01-2.23.01-.01.209-.01.45-.01.67,0,.429-.012.9-.012,1.329.5.01,1.32,0,2.387-.01.21-.012.347-.022.513-.022.325,0,.46.2.46.513,0,.282-.1.544-.585.554-.7.022-1.56,0-2.815,0-.858,0-1.079-.082-1.11-.658V45.16c0-.053.043-1.339.043-3,0-.848.01-1.686.01-2.543C46.527,39.216,46.821,39.079,47.25,39.079Z" transform="translate(-20.927 -39.016)" fill="#018837"/>
        <path id="Trazado_162" data-name="Trazado 162" d="M49.154,39.645a.5.5,0,0,1,.554-.556h2.2c.513,0,1.2-.02,1.758-.02.366,0,.576.188.576.513a1.252,1.252,0,0,1-.272.638l-.347.523c-.814,1.151-1.59,2.25-2.522,3.62-.188.272-.366.544-.533.785,1.549,0,2.594-.051,3.2-.051a.505.505,0,0,1,.544.554c0,.262-.135.523-.638.523-1.308.012-2.647.012-3.873.012-.26,0-.585-.063-.648-.356a.763.763,0,0,1-.022-.272,2.54,2.54,0,0,1,.513-.985l.66-.91c.764-1.067,1.4-1.977,2.009-2.825l.45-.691c-.942,0-2.271.012-3.1.012A.473.473,0,0,1,49.154,39.645Z" transform="translate(-18.364 -39.016)" fill="#018837"/>
        <path id="Trazado_163" data-name="Trazado 163" d="M52.205,45.091c.493-1.12.944-2.187,1.038-2.406.188-.482.564-1.382,1.286-3.213a.691.691,0,0,1,.65-.409.635.635,0,0,1,.7.431c.323.764.91,2.322,1.38,3.495.043.094.106.219.147.325.388.973.617,1.527.858,2.071a.868.868,0,0,1,.1.376.6.6,0,0,1-.638.482.543.543,0,0,1-.578-.407c-.323-.826-.523-1.339-.542-1.433-.368-.012-1.057-.012-1.811-.012H53.766c-.094.219-.345.922-.523,1.361-.116.282-.231.482-.544.482s-.67-.147-.67-.544A1.38,1.38,0,0,1,52.205,45.091Zm1.885-1.621c.5,0,1.308,0,2.165-.022-.2-.554-.848-2.365-1.057-2.972C54.938,41.252,54.457,42.5,54.091,43.47Z" transform="translate(-15.586 -39.022)" fill="#018837"/>
        <path id="Trazado_164" data-name="Trazado 164" d="M57.058,40.523a5.761,5.761,0,0,1,.022-.961.626.626,0,0,1,.607-.462c.325-.031,1.046-.031,1.611-.041a3.271,3.271,0,0,1,1.8.472,2.067,2.067,0,0,1,.922,1.884A2.336,2.336,0,0,1,60.3,43.641a9.833,9.833,0,0,1-1.737.094H58.23c0,.638.022,1.257.022,2,0,.378-.272.525-.607.525-.378,0-.587-.19-.587-.482.01-1.32.01-2.565.022-4C57.079,41.454,57.067,40.838,57.058,40.523Zm1.194,2.167h.5a4.946,4.946,0,0,0,1.224-.074,1.279,1.279,0,0,0,.9-1.265,1.1,1.1,0,0,0-.585-1.057,2.226,2.226,0,0,0-1.057-.2c-.219,0-.785,0-1,.012,0,.4.01,1.046.01,1.715C58.24,42.1,58.252,42.386,58.252,42.69Z" transform="translate(-10.778 -39.027)" fill="#018837"/>
        <path id="Trazado_165" data-name="Trazado 165" d="M60.974,39.089c.262-.01.544-.02.91-.02.231,0,.493,0,.785.01A2.2,2.2,0,0,1,65.057,41.3a2.035,2.035,0,0,1-1.382,1.989c.493.691.995,1.361,1.488,2.021a.629.629,0,0,1,.157.386.583.583,0,0,1-.607.535c-.241.01-.356-.116-.5-.294-.5-.742-1.026-1.537-1.611-2.353H61.3c0,.564.01,1.517.01,2.019,0,.325-.094.6-.491.619-.5.01-.67-.159-.66-.628.033-2.009.012-2.753.012-4.762,0-.335-.022-.722-.022-1.057C60.148,39.31,60.483,39.11,60.974,39.089Zm.315.995L61.3,42.6h1.047c.858,0,1.549-.345,1.559-1.286.01-.807-.544-1.245-1.486-1.245C62.137,40.064,61.562,40.073,61.289,40.083Z" transform="translate(-7.809 -39.016)" fill="#018837"/>
        <path id="Trazado_166" data-name="Trazado 166" d="M64.2,39.079c.114,0,.3,0,.46.01,1.308,0,2.071-.02,2.584-.02.4,0,.566.2.566.47a.461.461,0,0,1-.325.525c-.46.02-1.559.01-2.418.01h-.46v1l-.01.985V42.2h.419c.313,0,1.3-.022,1.7-.031s.648.063.638.5c0,.282-.127.491-.544.491-.462,0-1.811.01-2.23.01-.01.209-.01.45-.01.67,0,.429-.012.9-.012,1.329.5.01,1.32,0,2.387-.01.21-.012.347-.022.513-.022.325,0,.46.2.46.513,0,.282-.1.544-.585.554-.7.022-1.559,0-2.815,0-.858,0-1.079-.082-1.11-.658V45.16c0-.053.043-1.339.043-3,0-.848.01-1.686.01-2.543C63.477,39.216,63.771,39.079,64.2,39.079Z" transform="translate(-4.691 -39.016)" fill="#018837"/>
        <path id="Trazado_167" data-name="Trazado 167" d="M67.317,45.78a.576.576,0,0,1-1.141-.137c.241-1.486.722-5.159.86-6.154.082-.3.47-.419.764-.407.345,0,.513.241.627.576.5,1.4,1.1,3.129,1.508,4.321a4.587,4.587,0,0,1,.147.45l.094-.251c.491-1.183.879-2.25,1.717-4.48.094-.209.219-.535.544-.628a1.574,1.574,0,0,1,.3-.01.538.538,0,0,1,.482.231c.157.564.482,3.695.816,6.373a.58.58,0,0,1-1.151.116c-.168-1.5-.315-3.193-.46-4.7l-1.7,4.437a.7.7,0,0,1-.7.491c-.376-.01-.47-.251-.6-.533-.482-1.329-1.245-3.579-1.549-4.458C67.693,42.461,67.389,45.3,67.317,45.78Z" transform="translate(-2.042 -39.029)" fill="#018837"/>
        <path id="Trazado_168" data-name="Trazado 168" d="M70.94,39.607a.535.535,0,0,1,.607-.554.5.5,0,0,1,.566.5V42.1c0,.472-.012,1.267-.012,1.654l.012,1.915a.518.518,0,0,1-.587.576.525.525,0,0,1-.6-.544c0-.262.01-.607.01-.932l.022-2.866C70.961,41.293,70.95,40.518,70.94,39.607Z" transform="translate(2.519 -39.031)" fill="#018837"/>
        <path id="Trazado_169" data-name="Trazado 169" d="M72.415,39.671a.5.5,0,0,1,.556-.576c.45,0,.607.178.607.6-.022,1.288-.012,2.7-.012,3.559,0,1.308.628,1.915,1.686,1.915a1.725,1.725,0,0,0,1.633-1.925c.031-1.038-.012-2.534-.012-3.612,0-.386.241-.554.6-.554.4,0,.576.188.576.67L78.067,43c0,1.987-1.057,3.244-2.888,3.244A2.657,2.657,0,0,1,72.4,43.26C72.4,41.962,72.415,40.56,72.415,39.671Z" transform="translate(3.932 -39.011)" fill="#018837"/>
        <path id="Trazado_170" data-name="Trazado 170" d="M77.1,45.78a.576.576,0,0,1-1.141-.137c.241-1.486.722-5.159.86-6.154.082-.3.47-.419.764-.407.345,0,.513.241.627.576.5,1.4,1.1,3.129,1.508,4.321a4.6,4.6,0,0,1,.147.45l.094-.251c.491-1.183.879-2.25,1.717-4.48.094-.209.219-.535.544-.628a1.574,1.574,0,0,1,.3-.01.538.538,0,0,1,.482.231c.157.564.482,3.695.816,6.373a.58.58,0,0,1-1.151.116c-.168-1.5-.315-3.193-.46-4.7l-1.7,4.437a.705.705,0,0,1-.7.491c-.376-.01-.47-.251-.6-.533-.482-1.329-1.245-3.579-1.549-4.458C77.475,42.461,77.171,45.3,77.1,45.78Z" transform="translate(7.329 -39.029)" fill="#018837"/>
      </g>
      <g id="Grupo_35" data-name="Grupo 35" transform="translate(14.007 58.992)">
        <path id="Trazado_171" data-name="Trazado 171" d="M20.129,74.058a.675.675,0,0,0-.364.11c-.025.016-.055.031-.094.051a2.024,2.024,0,0,1-1.006.282,1.778,1.778,0,0,1-1.273-.525,2.052,2.052,0,0,1-.58-1.48,2.009,2.009,0,0,1,1.78-2.167,2.389,2.389,0,0,1,.959.2.942.942,0,0,0,.446.131h0c.329.008.542-.221.556-.6v0c0-.337-.264-.5-.525-.615a4,4,0,0,0-1.365-.262,3.2,3.2,0,0,0-3.1,3.354,3,3,0,0,0,2.956,3.158h.029c.944,0,2.077-.435,2.089-.987A.589.589,0,0,0,20.129,74.058Z" transform="translate(-15.571 -69.167)" fill="#018837"/>
        <path id="Trazado_172" data-name="Trazado 172" d="M22.161,74.443c-.11,0-.206,0-.325.012l-.429.01c-.689.006-1.247.012-1.631.008,0-.149,0-.3.006-.456,0-.2,0-.39,0-.576,0-.149,0-.309,0-.46l.809,0,1,0c.488,0,.589-.3.589-.542a.531.531,0,0,0-.127-.4.723.723,0,0,0-.546-.153h0c-.35.01-1.192.027-1.461.027h-.243l.008-1.6h.863c.593,0,1.208,0,1.531-.012a.5.5,0,0,0,.372-.57c0-.329-.227-.525-.607-.525-.17,0-.374,0-.625.006-.4.006-.914.012-1.6.012-.139-.01-.305-.01-.407-.01-.6,0-.746.313-.76.581,0,.372,0,.738-.006,1.1s0,.726,0,1.093c0,.809-.012,1.651-.033,2.5l0,.094v.341c.033.619.354.681,1.077.681.4,0,.75,0,1.065.006.26,0,.5,0,.709,0,.241,0,.458,0,.66-.01a.553.553,0,0,0,.623-.6A.491.491,0,0,0,22.161,74.443Z" transform="translate(-12.722 -69.145)" fill="#018837"/>
        <path id="Trazado_173" data-name="Trazado 173" d="M25.491,74.477c-.352-.474-.717-.961-1.073-1.459a1.887,1.887,0,0,0,1.126-1.774,2.01,2.01,0,0,0-2.177-2.036c-.253-.008-.482-.008-.681-.008-.311,0-.552.008-.791.018h0c-.721.031-.828.456-.828.707,0,.145,0,.3.008.46s.01.309.01.452c0,.542,0,.977,0,1.372,0,.863.006,1.547-.014,2.739a.673.673,0,0,0,.149.509.694.694,0,0,0,.546.155c.358-.02.538-.239.538-.652,0-.211,0-.513,0-.824,0-.28,0-.568-.006-.8h.942c.376.527.722,1.042,1.057,1.541l.3.448a.624.624,0,0,0,.5.3h.029a.622.622,0,0,0,.642-.581.662.662,0,0,0-.159-.405ZM24.31,71.252c-.008.822-.672.995-1.228.995H22.3L22.29,70.31c.251-.006.646-.014.858-.014a1.288,1.288,0,0,1,.932.3A.873.873,0,0,1,24.31,71.252Z" transform="translate(-10.307 -69.145)" fill="#018837"/>
        <path id="Trazado_174" data-name="Trazado 174" d="M28.617,69.2a.591.591,0,0,0-.582.394l-1.427,3.767c-.035.088-.07.188-.108.29l-.067.18-1.265-3.315c-.08-.221-.157-.427-.227-.615l-.117-.317a.54.54,0,0,0-.564-.394.662.662,0,0,0-.7.589,1.07,1.07,0,0,0,.09.36c.014.039.029.08.045.127.554,1.372.93,2.263,1.232,2.98.292.7.5,1.2.73,1.786.125.294.256.6.734.6a.741.741,0,0,0,.742-.5c.217-.517.425-1.008.619-1.474l.141-.333c.247-.574.352-.856.425-1.042.031-.084.055-.147.082-.208.352-.848.585-1.408.742-1.819l.031-.082a1.16,1.16,0,0,0,.112-.405C29.289,69.413,28.9,69.2,28.617,69.2Z" transform="translate(-7.914 -69.159)" fill="#018837"/>
        <path id="Trazado_175" data-name="Trazado 175" d="M30.449,74.443c-.11,0-.206,0-.325.012l-.429.01c-.689.006-1.247.012-1.631.008,0-.149,0-.3,0-.456,0-.2.006-.39.006-.576,0-.149,0-.309,0-.46l.809,0,1,0c.488,0,.589-.3.589-.542a.531.531,0,0,0-.127-.4.723.723,0,0,0-.546-.153h0c-.35.01-1.192.027-1.461.027H28.1l.008-1.6h.863c.593,0,1.208,0,1.531-.012a.5.5,0,0,0,.372-.57c0-.329-.227-.525-.607-.525-.17,0-.374,0-.625.006-.4.006-.914.012-1.6.012-.139-.01-.305-.01-.407-.01-.6,0-.746.313-.76.581,0,.372,0,.738-.006,1.1s0,.726,0,1.093c0,.809-.012,1.651-.033,2.5l0,.094v.341c.033.619.354.681,1.077.681.4,0,.75,0,1.065.006.26,0,.493,0,.709,0,.241,0,.458,0,.66-.01a.553.553,0,0,0,.623-.6A.491.491,0,0,0,30.449,74.443Z" transform="translate(-4.783 -69.145)" fill="#018837"/>
        <path id="Trazado_176" data-name="Trazado 176" d="M33.271,74.406c-.2,0-.462.008-.781.016-.47.012-1.044.027-1.758.029l.1-.147c.074-.112.153-.227.233-.345.822-1.212,1.5-2.169,2.179-3.129l.3-.45a1.155,1.155,0,0,0,.256-.619.549.549,0,0,0-.617-.562c-.245,0-.521,0-.791.01s-.511.008-.728.008h-1.9a.55.55,0,0,0-.6.6.527.527,0,0,0,.562.562c.347,0,.793,0,1.255,0l1.2-.006-.264.409c-.251.35-.509.713-.781,1.1-.3.419-.611.863-.954,1.343l-.57.785a2.257,2.257,0,0,0-.466.908.793.793,0,0,0,.02.272c.033.151.164.4.677.4,1.059,0,2.216,0,3.346-.008.6,0,.67-.4.67-.572A.557.557,0,0,0,33.271,74.406Z" transform="translate(-2.569 -69.145)" fill="#018837"/>
        <path id="Trazado_177" data-name="Trazado 177" d="M36.525,72.94c-.023-.061-.057-.129-.086-.194l-.041-.086c-.172-.431-.364-.922-.546-1.394-.251-.642-.486-1.247-.644-1.623a.667.667,0,0,0-.719-.448.718.718,0,0,0-.672.429c-.394,1-.67,1.68-.86,2.148-.112.272-.192.474-.251.625l-.07.164c-.149.35-.474,1.114-.822,1.911a1.277,1.277,0,0,0-.166.566.62.62,0,0,0,.7.589c.35,0,.48-.243.58-.491.08-.2.176-.45.26-.677.065-.168.121-.321.163-.423h.8c.587,0,1.145,0,1.476.008.057.166.2.531.448,1.167a.584.584,0,0,0,.607.425.638.638,0,0,0,.672-.535.876.876,0,0,0-.092-.374C37.056,74.25,36.854,73.767,36.525,72.94Zm-1.273.047c-.587.012-1.14.014-1.531.014l.163-.431c.223-.585.45-1.188.623-1.674C34.712,71.48,35.055,72.437,35.253,72.987Z" transform="translate(-0.17 -69.15)" fill="#018837"/>
        <path id="Trazado_178" data-name="Trazado 178" d="M40.6,72.94c-.023-.061-.057-.129-.086-.194l-.041-.086c-.172-.431-.364-.922-.546-1.394-.251-.642-.486-1.247-.646-1.623a.663.663,0,0,0-.717-.448.718.718,0,0,0-.672.429c-.394,1-.67,1.68-.86,2.148-.112.272-.192.474-.251.625l-.07.164c-.149.35-.474,1.114-.824,1.911a1.3,1.3,0,0,0-.164.566.62.62,0,0,0,.7.589c.35,0,.48-.243.58-.491.08-.2.176-.45.26-.677.065-.168.121-.321.163-.423h.8c.587,0,1.145,0,1.476.008.057.166.2.531.448,1.167a.582.582,0,0,0,.607.425.636.636,0,0,0,.67-.535.877.877,0,0,0-.09-.374C41.133,74.25,40.931,73.767,40.6,72.94Zm-1.273.047C38.742,73,38.19,73,37.8,73l.163-.431c.223-.585.45-1.188.623-1.674C38.789,71.48,39.132,72.437,39.33,72.987Z" transform="translate(3.735 -69.15)" fill="#018837"/>
        <path id="Trazado_179" data-name="Trazado 179" d="M42.351,74.415h0l-1.292.045c-.184.008-.566.01-.832.01,0-.137.006-.417.006-1.1,0-.276,0-.556.006-.838s0-.572,0-.852q.006-.347.012-.687c.008-.423.016-.834.016-1.226a.534.534,0,0,0-.589-.576.6.6,0,0,0-.662.58c0,.29,0,.689,0,1.114,0,.489.006,1.014.006,1.453,0,.333-.014.668-.023,1-.012.431-.022.836-.022,1.228v.354c.051.56.323.691.867.691.057,0,.116,0,.178,0,.368-.018.807-.018,1.269-.018l1.032.008a.564.564,0,0,0,.589-.634A.506.506,0,0,0,42.351,74.415Z" transform="translate(6.854 -69.154)" fill="#018837"/>
        <path id="Trazado_180" data-name="Trazado 180" d="M44.93,74.443c-.112,0-.206,0-.325.012l-.431.01c-.687.006-1.245.012-1.629.008,0-.149,0-.3,0-.456,0-.2,0-.39,0-.576,0-.149,0-.309.006-.46l.807,0,1,0c.486,0,.589-.3.589-.542a.531.531,0,0,0-.127-.4.726.726,0,0,0-.546-.153h0c-.35.01-1.19.027-1.461.027h-.243l.01-1.6h.861c.6,0,1.21,0,1.531-.012a.506.506,0,0,0,.374-.57c0-.329-.227-.525-.607-.525-.172,0-.376,0-.625.006-.4.006-.914.012-1.6.012-.137-.01-.3-.01-.405-.01-.6,0-.748.313-.762.581,0,.372,0,.738,0,1.1s0,.726,0,1.093c0,.809-.012,1.651-.035,2.5l0,.094v.341c.035.619.354.681,1.077.681.4,0,.752,0,1.067.006.26,0,.493,0,.709,0,.241,0,.456,0,.66-.01a.553.553,0,0,0,.623-.6A.491.491,0,0,0,44.93,74.443Z" transform="translate(9.087 -69.145)" fill="#018837"/>
        <path id="Trazado_181" data-name="Trazado 181" d="M50.025,69.479l-.01-.025a.556.556,0,0,0-.509-.26,1.291,1.291,0,0,0-.307.014.9.9,0,0,0-.531.574l-.405,1.075c-.452,1.206-.73,1.952-1.055,2.735l-.023-.069c-.284-.828-.828-2.414-1.3-3.734a.706.706,0,0,0-.65-.578h0a.743.743,0,0,0-.783.456l-.108.8c-.174,1.31-.468,3.5-.632,4.515a.557.557,0,0,0,.121.46.607.607,0,0,0,.476.2.564.564,0,0,0,.623-.5v0c.031-.2.1-.848.19-1.6.076-.666.161-1.4.235-2l.059.168c.313.916.789,2.3,1.116,3.205l.01.025c.11.243.221.5.611.507a.712.712,0,0,0,.721-.5l1.282-3.358c.023.243.047.489.07.738.088.946.18,1.923.28,2.819a.572.572,0,0,0,.615.519.632.632,0,0,0,.476-.188A.6.6,0,0,0,50.734,75c-.094-.744-.186-1.529-.272-2.269C50.278,71.169,50.119,69.818,50.025,69.479Z" transform="translate(11.375 -69.156)" fill="#018837"/>
        <path id="Trazado_182" data-name="Trazado 182" d="M52.39,72.94c-.025-.061-.057-.129-.086-.194l-.041-.086c-.172-.431-.364-.922-.548-1.394-.249-.642-.484-1.247-.644-1.623a.663.663,0,0,0-.717-.448.716.716,0,0,0-.672.429c-.4,1-.67,1.68-.86,2.148-.112.272-.194.474-.251.625l-.07.164c-.149.35-.474,1.114-.824,1.911a1.3,1.3,0,0,0-.164.566.62.62,0,0,0,.7.589c.352,0,.48-.243.581-.491.078-.2.174-.45.26-.677.063-.168.119-.321.161-.423h.807c.587,0,1.143,0,1.476.008.057.166.2.531.448,1.167a.582.582,0,0,0,.607.425.636.636,0,0,0,.67-.535.849.849,0,0,0-.092-.374C52.919,74.25,52.719,73.767,52.39,72.94Zm-1.275.047C50.53,73,49.978,73,49.586,73l.163-.431c.221-.585.45-1.188.623-1.674C50.577,71.48,50.92,72.437,51.116,72.987Z" transform="translate(15.027 -69.15)" fill="#018837"/>
        <path id="Trazado_183" data-name="Trazado 183" d="M56.047,71.418c0-.511,0-1.022,0-1.521,0-.607-.374-.7-.6-.7a.615.615,0,0,0-.468.163.812.812,0,0,0-.166.591l.018,1.987c0,.493.006,1.022.012,1.447L52.24,69.7c-.2-.274-.386-.5-.738-.5s-.724.2-.724.568c-.006.253,0,.515,0,.736,0,.1,0,.184,0,.26,0,.3,0,.542,0,.762,0,.394,0,.73,0,1.263-.01,1.709-.01,2.107-.01,2.265.01.366.239.568.644.568.223,0,.6-.088.6-.681L52,74.024c-.008-.844-.022-1.95-.025-2.71.754,1.071,2.013,2.862,2.659,3.806.19.262.354.491.711.491a.643.643,0,0,0,.717-.6c0-1.114-.01-1.605-.018-2.089S56.045,71.927,56.047,71.418Z" transform="translate(18.145 -69.145)" fill="#018837"/>
        <path id="Trazado_184" data-name="Trazado 184" d="M58.677,72.94c-.023-.061-.055-.129-.086-.194l-.039-.086c-.174-.431-.364-.922-.548-1.394-.249-.642-.486-1.247-.644-1.623a.667.667,0,0,0-.719-.448.715.715,0,0,0-.67.429c-.4,1-.672,1.68-.861,2.148-.11.272-.192.474-.251.625l-.069.164c-.149.35-.476,1.114-.824,1.911a1.3,1.3,0,0,0-.164.566.62.62,0,0,0,.7.589c.352,0,.48-.243.582-.491.078-.2.174-.45.26-.677.063-.168.119-.321.161-.423h.807c.585,0,1.143,0,1.474.008.059.166.2.531.448,1.167a.585.585,0,0,0,.607.425.638.638,0,0,0,.672-.535.876.876,0,0,0-.092-.374C59.208,74.25,59.006,73.767,58.677,72.94Zm-1.273.047c-.585.012-1.14.014-1.531.014l.164-.431c.221-.585.45-1.188.623-1.674C56.866,71.48,57.209,72.437,57.4,72.987Z" transform="translate(21.051 -69.15)" fill="#018837"/>
        <path id="Trazado_185" data-name="Trazado 185" d="M63.294,69.793a.557.557,0,0,0-.617-.607.572.572,0,0,0-.634.617c0,.249,0,.583,0,.948,0,.392,0,.813,0,1.194l-.341.008c-.247,0-.517,0-.785,0s-.533,0-.769,0c-.35,0-.564,0-.7-.006h-.047c0-.652,0-1.069,0-1.386,0-.339,0-.568,0-.848,0-.313-.233-.507-.607-.507-.568,0-.654.362-.654.581l.037,2.071c.01.642,0,1.3-.008,1.938-.006.433-.01.865-.01,1.294,0,.341.229.544.615.544.4,0,.654-.2.654-.535l-.018-2c.456,0,.91,0,1.359-.008.433,0,.86-.008,1.277-.01l.008,1.987a.554.554,0,0,0,.627.562c.533,0,.644-.305.644-.562l-.037-2.62C63.294,71.277,63.294,70.8,63.294,69.793Z" transform="translate(25.204 -69.159)" fill="#018837"/>
        <path id="Trazado_186" data-name="Trazado 186" d="M65.009,74.443c-.11,0-.206,0-.325.012l-.429.01c-.689.006-1.247.012-1.631.008,0-.149,0-.3,0-.456,0-.2.006-.39.006-.576,0-.149,0-.309,0-.46l.809,0,1,0c.488,0,.589-.3.589-.542a.531.531,0,0,0-.127-.4.723.723,0,0,0-.546-.153h0c-.35.01-1.192.027-1.463.027h-.241l.008-1.6h.861c.6,0,1.21,0,1.533-.012a.5.5,0,0,0,.372-.57c0-.329-.227-.525-.607-.525-.17,0-.374,0-.625.006-.4.006-.914.012-1.6.012-.139-.01-.305-.01-.407-.01-.6,0-.746.313-.76.581,0,.372,0,.738-.006,1.1s0,.726,0,1.093c0,.809-.012,1.651-.033,2.5l0,.094v.341c.033.619.354.681,1.077.681.4,0,.75,0,1.065.006.26,0,.493,0,.709,0,.241,0,.458,0,.66-.01a.553.553,0,0,0,.623-.6A.491.491,0,0,0,65.009,74.443Z" transform="translate(28.323 -69.145)" fill="#018837"/>
        <path id="Trazado_187" data-name="Trazado 187" d="M68.31,74.058a.675.675,0,0,0-.364.11c-.027.016-.055.031-.1.051a2.014,2.014,0,0,1-1.042.282,1.729,1.729,0,0,1-1.235-.525,2.052,2.052,0,0,1-.58-1.48,2.007,2.007,0,0,1,1.78-2.167,2.4,2.4,0,0,1,.959.2.936.936,0,0,0,.446.131h0c.341.008.544-.221.558-.6v0c0-.337-.264-.5-.525-.615a4,4,0,0,0-1.367-.262,3.2,3.2,0,0,0-3.094,3.354,3,3,0,0,0,2.956,3.158h.029c.944,0,2.077-.435,2.089-.987A.589.589,0,0,0,68.31,74.058Z" transform="translate(30.582 -69.167)" fill="#018837"/>
        <path id="Trazado_188" data-name="Trazado 188" d="M71.867,69.793a.557.557,0,0,0-.617-.607.572.572,0,0,0-.634.617c0,.249,0,.583,0,.948,0,.392,0,.813.006,1.194l-.343.008c-.245,0-.515,0-.785,0s-.531,0-.769,0c-.35,0-.564,0-.7-.006h-.047c0-.652,0-1.069,0-1.386,0-.339,0-.568,0-.848,0-.313-.233-.507-.607-.507-.568,0-.652.362-.652.581l.035,2.071c.012.642,0,1.3-.006,1.938-.006.433-.012.865-.012,1.294,0,.341.229.544.617.544s.652-.2.652-.535l-.018-2c.456,0,.91,0,1.359-.008s.861-.008,1.279-.01l.008,1.987a.552.552,0,0,0,.625.562c.533,0,.644-.305.644-.562l-.037-2.62C71.867,71.277,71.867,70.8,71.867,69.793Z" transform="translate(33.418 -69.159)" fill="#018837"/>
        <path id="Trazado_189" data-name="Trazado 189" d="M74.571,72.94c-.025-.061-.057-.129-.086-.194l-.041-.086c-.172-.431-.364-.922-.548-1.394-.249-.642-.484-1.247-.644-1.623a.663.663,0,0,0-.717-.448.716.716,0,0,0-.672.429c-.4,1-.67,1.68-.86,2.148-.112.272-.192.474-.251.625l-.07.164c-.149.35-.474,1.114-.824,1.911a1.3,1.3,0,0,0-.164.566.62.62,0,0,0,.7.589c.35,0,.48-.243.58-.491.078-.2.174-.45.26-.677.063-.168.121-.321.161-.423H72.2c.587,0,1.145,0,1.476.008.057.166.2.531.448,1.167a.582.582,0,0,0,.607.425.636.636,0,0,0,.67-.535.877.877,0,0,0-.09-.374C75.1,74.25,74.9,73.767,74.571,72.94Zm-1.273.047c-.587.012-1.14.014-1.531.014l.163-.431c.223-.585.45-1.188.623-1.674C72.758,71.48,73.1,72.437,73.3,72.987Z" transform="translate(36.275 -69.15)" fill="#018837"/>
        <path id="Trazado_190" data-name="Trazado 190" d="M77.66,74.443c-.11,0-.206,0-.325.012l-.429.01c-.689.006-1.247.012-1.631.008,0-.149,0-.3.006-.456,0-.2,0-.39,0-.576,0-.149,0-.309,0-.46l.809,0,1,0c.488,0,.589-.3.589-.542a.531.531,0,0,0-.127-.4.723.723,0,0,0-.546-.153h0c-.35.01-1.192.027-1.461.027h-.243l.008-1.6h.863c.593,0,1.208,0,1.531-.012a.5.5,0,0,0,.372-.57c0-.329-.227-.525-.607-.525-.17,0-.374,0-.625.006-.4.006-.914.012-1.6.012-.139-.01-.305-.01-.407-.01-.6,0-.746.313-.76.581,0,.372,0,.738-.006,1.1s0,.726,0,1.093c0,.809-.012,1.651-.033,2.5l0,.094v.341c.033.619.354.681,1.077.681.4,0,.75,0,1.065.006.26,0,.5,0,.709,0,.241,0,.458,0,.66-.01a.553.553,0,0,0,.623-.6A.491.491,0,0,0,77.66,74.443Z" transform="translate(40.441 -69.145)" fill="#018837"/>
        <path id="Trazado_191" data-name="Trazado 191" d="M81.83,71.418c0-.511,0-1.022,0-1.521,0-.607-.376-.7-.6-.7a.621.621,0,0,0-.468.163.821.821,0,0,0-.166.591l.018,1.987c0,.493.006,1.022.012,1.447L78.023,69.7c-.2-.274-.388-.5-.738-.5s-.726.2-.726.568c-.006.253,0,.515,0,.736v.26c0,.3,0,.542,0,.762,0,.394,0,.73,0,1.263-.008,1.709-.008,2.107-.008,2.265.01.366.239.568.644.568.223,0,.6-.088.6-.681l-.01-.916c-.01-.844-.022-1.95-.025-2.71.754,1.071,2.013,2.862,2.659,3.806.19.262.352.491.711.491a.643.643,0,0,0,.717-.6c0-1.114-.01-1.605-.02-2.089S81.826,71.927,81.83,71.418Z" transform="translate(42.843 -69.145)" fill="#018837"/>
        <path id="Trazado_192" data-name="Trazado 192" d="M84.644,72.268a1.556,1.556,0,0,0,.636-1.286h0A1.9,1.9,0,0,0,83.154,69.2h-.164a13.488,13.488,0,0,0-1.441.045.621.621,0,0,0-.583.634c0,.268.006.525.014.781s.014.507.014.773l-.01,3.46c.023.444.255.7.634.7h.7a14.647,14.647,0,0,0,1.568-.047,1.761,1.761,0,0,0,1.725-1.889A1.434,1.434,0,0,0,84.644,72.268ZM83.191,71.9c-.182,0-.437,0-.662.006l-.315,0c-.006-1.071-.008-1.439-.008-1.6.272-.006.734-.014.928-.014.221,0,.938.067.95.713A.828.828,0,0,1,83.191,71.9Zm1.19,1.811c0,.717-.764.793-1.093.793H82.224l-.008-1.553,1.065-.018C84.021,72.936,84.382,73.191,84.382,73.713Z" transform="translate(47.071 -69.145)" fill="#018837"/>
        <path id="Trazado_193" data-name="Trazado 193" d="M86.714,69.172h-.033a2.979,2.979,0,0,0-2.07.879,3.5,3.5,0,0,0-1,2.522A3.07,3.07,0,0,0,86.685,75.7a3.167,3.167,0,0,0,3.121-3.346A3.105,3.105,0,0,0,86.714,69.172Zm.025,5.343a1.9,1.9,0,0,1-1.887-2.032,1.871,1.871,0,1,1,3.712-.108A2.283,2.283,0,0,1,87.922,74,1.667,1.667,0,0,1,86.74,74.515Z" transform="translate(49.606 -69.172)" fill="#018837"/>
        <path id="Trazado_194" data-name="Trazado 194" d="M90.568,74.415h0l-1.294.045c-.184.008-.564.01-.83.01,0-.137.006-.417.006-1.1,0-.276,0-.556,0-.838s.006-.572.006-.852q0-.347.012-.687c.008-.423.016-.834.016-1.226a.534.534,0,0,0-.589-.576.6.6,0,0,0-.662.58c0,.29,0,.689,0,1.114,0,.489,0,1.014,0,1.453,0,.333-.014.668-.022,1-.012.431-.023.836-.023,1.228v.354c.051.56.323.691.869.691.057,0,.116,0,.178,0,.368-.018.8-.018,1.267-.018l1.032.008a.563.563,0,0,0,.589-.634A.5.5,0,0,0,90.568,74.415Z" transform="translate(53.042 -69.154)" fill="#018837"/>
        <path id="Trazado_195" data-name="Trazado 195" d="M90.211,69.186a.577.577,0,0,0-.644.6l0,.366c.008.628.014,1.173.014,1.611l-.018,2.479c0,.147,0,.3,0,.443s-.006.255-.006.362a.57.57,0,0,0,.634.589.633.633,0,0,0,.474-.172.592.592,0,0,0,.153-.444l-.01-1.654c0-.159,0-.4.006-.648,0-.276,0-.566,0-.781v-2.2A.552.552,0,0,0,90.211,69.186Z" transform="translate(55.302 -69.159)" fill="#018837"/>
        <path id="Trazado_196" data-name="Trazado 196" d="M95.636,69.2a.591.591,0,0,0-.582.394l-1.427,3.767c-.035.088-.07.188-.108.29l-.067.18-1.265-3.315c-.08-.221-.157-.427-.227-.615l-.117-.317a.54.54,0,0,0-.564-.394.662.662,0,0,0-.7.589,1.07,1.07,0,0,0,.09.36c.014.039.027.08.045.127.554,1.372.93,2.263,1.232,2.98.292.7.5,1.2.73,1.786.125.294.257.6.734.6a.741.741,0,0,0,.742-.5c.217-.517.425-1.008.619-1.474l.141-.333c.247-.574.352-.856.425-1.042.031-.084.055-.147.08-.208.354-.848.587-1.408.742-1.819l.033-.082a1.16,1.16,0,0,0,.112-.405C96.308,69.413,95.916,69.2,95.636,69.2Z" transform="translate(56.284 -69.159)" fill="#018837"/>
        <path id="Trazado_197" data-name="Trazado 197" d="M94.533,69.186a.577.577,0,0,0-.644.6l0,.366c.008.628.014,1.173.014,1.611l-.018,2.479c0,.147,0,.3-.006.443s0,.255,0,.362a.569.569,0,0,0,.634.589.636.636,0,0,0,.474-.172.592.592,0,0,0,.153-.444l-.01-1.654c0-.159,0-.4,0-.648,0-.276.006-.566.006-.781v-2.2A.552.552,0,0,0,94.533,69.186Z" transform="translate(59.442 -69.159)" fill="#018837"/>
        <path id="Trazado_198" data-name="Trazado 198" d="M100.515,74.726c-.209-.476-.411-.959-.74-1.786-.023-.061-.057-.129-.086-.194l-.039-.086c-.174-.431-.364-.922-.548-1.394-.251-.642-.486-1.247-.644-1.623a.667.667,0,0,0-.719-.448.72.72,0,0,0-.672.429c-.394,1-.67,1.68-.86,2.148-.11.272-.192.474-.251.625l-.07.164c-.149.35-.474,1.114-.822,1.911a1.271,1.271,0,0,0-.164.566.62.62,0,0,0,.7.589c.352,0,.48-.243.582-.491.078-.2.174-.45.258-.677.065-.168.121-.321.163-.423h.8c.587,0,1.145,0,1.476.008.057.166.2.531.448,1.167a.585.585,0,0,0,.607.425.638.638,0,0,0,.672-.535A.876.876,0,0,0,100.515,74.726ZM98.5,72.987c-.585.012-1.14.014-1.531.014l.163-.431c.223-.585.452-1.188.625-1.674C97.962,71.48,98.3,72.437,98.5,72.987Z" transform="translate(60.42 -69.15)" fill="#018837"/>
      </g>
      <g id="Grupo_36" data-name="Grupo 36" transform="translate(37.732 19.049)">
        <path id="Trazado_199" data-name="Trazado 199" d="M63.275,48.843A12.493,12.493,0,1,1,63.3,73.826,12.673,12.673,0,0,1,50.723,61.614C50.6,54.423,56.71,48.627,63.275,48.843Zm.088,5.78a6.58,6.58,0,0,0-6.733,6.594,6.715,6.715,0,0,0,6.684,6.851,6.8,6.8,0,0,0,6.741-6.939A6.688,6.688,0,0,0,63.363,54.623Zm9.03,2.152c.354-.151.4-.325.159-1.529a3.361,3.361,0,0,0-1.036.454,1.06,1.06,0,0,0-.133,1.433c.141.194.523.211.795.309Zm-4.022,10.98,1.645,1.825.235-.069.069-1.419C69.707,67.525,69.127,67.923,68.372,67.754Zm4.507-8.4c-.546.654-.546.654.311,1.369H72.109l.09.846.119.006.11-.272,1.357-.067-.02-.272-.354.023Zm.229,3.931.1-.07a4.047,4.047,0,0,0-.39-.756.632.632,0,0,0-.507-.245c-.139.035-.245.286-.321.462-.053.121-.01.28-.045.415-.055.221-.139.435-.21.65l.3.1.448-1.026Zm-1.837,3.223.378-.883.335.441.2-.117c-.127-.2-.251-.576-.386-.58a4.237,4.237,0,0,0-1.061.227Zm-8.163,4.366c.646.025,1.23-.73,1.277-1.727Zm2.563.95c1.155-.482,1.261-.679.877-1.8ZM53.548,58.517l.149-.067.486-1.372-.873.143Zm13.269,10.79.117.313,1.29-.6.323.309.131-.123-.83-.971-.166.112v.615ZM67.872,54a2.615,2.615,0,0,0,.562-.215,10.743,10.743,0,0,0-.345-1.261l-.155.061Zm-14,2.573.963.215-.683-1.208Zm4.583-3.522-.262.012c.023.278,0,.781.078.8a3.77,3.77,0,0,0,1.012-.041l-.02-.182-.587.067ZM68.532,71.124l.63-.092V69.773Z" transform="translate(-5.625 -48.708)" fill="#fff"/>
        <path id="Trazado_200" data-name="Trazado 200" d="M52.886,63.526c1.1,2.144,2.2,4.266,3.289,6.389.39.758.791,1.512,1.155,2.281.337.711.155,1.02-.66,1.083-.644.051-1.294.016-1.94.018-.717,0-1.433-.016-2.148.006a1.117,1.117,0,0,1-1.124-.642c-1.4-2.645-2.829-5.273-4.176-7.945-.3-.585-.6-.852-1.23-.807-.454.033-.912.008-1.451.008,0,.5,0,.9,0,1.312q0,3.433,0,6.866c0,.818-.364,1.192-1.165,1.2-1.155.01-2.31.008-3.466,0-.779-.006-1.04-.251-1.047-1.038-.016-1.551,0-3.1-.006-4.648V50.267c0-1.167.141-1.31,1.32-1.31,3.372,0,6.745.006,10.119,0a6.974,6.974,0,0,1,6.234,3.454c2.355,3.708,1.355,7.89-2.416,10.312C53.771,62.982,53.358,63.23,52.886,63.526Zm-8.123-4.382c1.741,0,3.4-.07,5.059.022a2.257,2.257,0,0,0,2.261-2.283c.035-1.664-.766-2.653-2.2-2.675-1.523-.023-3.047-.008-4.57,0a5.113,5.113,0,0,0-.55.065Zm-.227-7.595c-1.345-.65-2.492-1.416-3.9-.654l-.172,1.58.938.047-.28.646,1.126-.411-.292.6,1.294-.652-.237.957.141.039.858-1.793c.533.256,1.026.744,1.519.037.025-.039.26.069.4.108-.023-.8-.168-.942-.867-.881l.36-.55-.074-.131-1.024.37Zm-3.5,18.469c-.253.321-.572.554-.613.826a2.873,2.873,0,0,0,.284,1.038l.525-.656.116.067-.2.7.157.078.824-1.3.1.2c.274.023.55.059.824.055a.825.825,0,0,0,.072-.349,2.122,2.122,0,0,0-.717-.211,3.346,3.346,0,0,0-.769.155l.025-.48Zm13.13-.213.194-.64-.546.215c-.2-.452.194-1.128-.413-1.292a3.48,3.48,0,0,0-1.363.209l-.023.321,1.3.462-.429.791Zm-11.4-12.186a5.014,5.014,0,0,0-.991-.677c-.2-.078-.511.09-.75.2-.063.027-.094.27-.045.362.08.147.227.345.366.362.468.055.47.029.484.4.008.211.023.425.037.638l.221.067Zm3.867,3.356-1.094.646-.568-.636-.779.907,2.279.386Zm2.577.239-.1-.5-.47.824c.934-.149,1.78.511,2.5-.286l1.439.425.07-.182-1.51-.736C50.8,61.6,49.941,61.116,49.211,61.214Zm-7.178.345c0,.235,0,.382,0,.529a9.25,9.25,0,0,1,.006.932c-.006.053-.26.157-.339.117-.607-.3-.713.227-1.153.585.832.07,1.5-.059,1.758-.576A1.089,1.089,0,0,0,42.033,61.558Zm10.4-9.057.932.783c.319-.329-.027-.895-.9-1.226Zm2.792,3.211.634-1.654C55.308,54.1,54.983,54.913,55.224,55.712Zm-5.635,7.953-.131-.035-.39.609.382,1.024c.08-.149.133-.2.135-.256C49.591,64.56,49.589,64.111,49.589,63.665ZM50,64.975l-.231.072-.206.715,0,.394c.562-1.11.535.039,1-.245Zm.538,2.2c.848-.164.991-.419.628-1.2Zm-7.464-12.4-.033-.19c-.215.008-.568-.053-.619.043a2.67,2.67,0,0,0-.151.828l.178.039Zm-1.294.018-.844.744.106.2,1.155-.347Z" transform="translate(-16.93 -48.595)" fill="#fff"/>
        <path id="Trazado_201" data-name="Trazado 201" d="M33.295,64.618v7.256c0,1.1-.394,1.5-1.486,1.508-.995.006-1.987.008-2.98-.006-.869-.014-1.132-.27-1.132-1.118q-.012-11.031-.008-22.06c0-.879.329-1.214,1.23-1.2,3,.029,6.015-.07,9,.166s4.993,2.118,6.152,4.815c1.609,3.745-.6,8.3-3.636,9.979a5.835,5.835,0,0,1-2.925.666C36.132,64.612,34.752,64.618,33.295,64.618Zm.022-10.226c0,1.484.027,2.866-.014,4.247-.016.548.219.679.685.67.946-.022,1.889-.023,2.835-.047a2.267,2.267,0,0,0,2.24-2.377,2.237,2.237,0,0,0-2.071-2.477C35.8,54.335,34.6,54.392,33.316,54.392ZM30.509,72.119c.809.035.809.035.938-.576l-1.186-.376Zm4.6-9.805.356-.127-.558-1.363L33.9,61.93l.082.07.82-.55Zm-3.428,4.934.45-.715-.893-.366C30.828,66.784,31.548,66.764,31.683,67.248Z" transform="translate(-27.689 -48.557)" fill="#fff"/>
        <path id="Trazado_202" data-name="Trazado 202" d="M73.822,48.771c2.3.243,4.742.54,6.794,2.122a5.759,5.759,0,0,1,.762.7.945.945,0,0,1,.112,1.267c-.568.813-1.138,1.629-1.75,2.408-.519.656-.75.615-1.539.211a24.626,24.626,0,0,0-3.258-1.465,4.635,4.635,0,0,0-2.032-.1,1.421,1.421,0,0,0-1,2.291,8.944,8.944,0,0,0,2.283,1.84c1.441.858,2.986,1.541,4.437,2.385a7.027,7.027,0,0,1,3.507,4.433,6.842,6.842,0,0,1-2.849,7.268,9.678,9.678,0,0,1-7.105,1.576,10.161,10.161,0,0,1-5.872-2.479.989.989,0,0,1-.286-1.343c.444-.807.891-1.613,1.372-2.4.511-.83.732-.844,1.645-.415a28.674,28.674,0,0,0,3.346,1.435,4.738,4.738,0,0,0,2.093.088,1.7,1.7,0,0,0,1.173-2.727,6.464,6.464,0,0,0-1.811-1.652c-1.425-.889-2.947-1.623-4.392-2.485A6.856,6.856,0,0,1,65.929,57.4a6.484,6.484,0,0,1,3.2-7.35A9.326,9.326,0,0,1,73.822,48.771Zm1.163,22.671.57-.327c-.168-.1-.313-.225-.354-.2-.37.245-.722.519-1.124.816L72.5,70.014l-.364.607c1.23.137.454,1.087.768,1.521.294-.082.769-.333.875-.223.517.529.955.237,1.48,0ZM72.659,51.614a4.188,4.188,0,0,1-1.03.245,3.033,3.033,0,0,1-.914-.368l-.685,1.421.56.319.3-1.044C71.445,51.929,72.224,52.4,72.659,51.614ZM69.747,54.4l.151-.121V53.014l-.184-.1a3.014,3.014,0,0,0-.564.9C69.119,53.963,69.534,54.2,69.747,54.4Zm-.9-1.525,1.081-.519-.632-.433-.775.593Z" transform="translate(8.752 -48.771)" fill="#fff"/>
        <path id="Trazado_203" data-name="Trazado 203" d="M34.082,63.649v3.2c0,1.5.006,3.007-.006,4.509-.008.822-.268,1.089-1.067,1.1-1.179.01-2.357.016-3.536-.016a3.241,3.241,0,0,1-.846-.262l.035-.253c.74,0,1.482-.022,2.222,0a2.177,2.177,0,0,0,2.357-2.242v-6.51a15.015,15.015,0,0,1,1.809.01c5.077.64,8.444-3.166,9.3-7.033a9.613,9.613,0,0,0-.074-3.906c-.037-.2-.061-.4-.123-.807a5.349,5.349,0,0,1,1.237,3.041,8.3,8.3,0,0,1-2.637,7.444,2.93,2.93,0,0,1-.814.358c-.076.033-.192.059-.215.117-.5,1.192-1.637,1.21-2.626,1.277-1.423.1-2.861-.006-4.29-.022C34.585,63.648,34.362,63.649,34.082,63.649Z" transform="translate(-26.79 -46.218)" fill="#fff"/>
        <path id="Trazado_204" data-name="Trazado 204" d="M56.306,70.282c.893,0,1.786.035,2.675-.008a7.978,7.978,0,0,0,3.606-.756,2.6,2.6,0,0,1,.971-.1l-.01.168c1.069-.838,2.15-1.66,3.207-2.512A12.542,12.542,0,0,0,71.4,58.357a15.4,15.4,0,0,0-.292-4.732,2.131,2.131,0,0,1,0-.356c2.05,3.231,1.7,8.6-.6,11.652a10.757,10.757,0,0,1-2.641,3.005A22.08,22.08,0,0,1,64.3,69.977a15.268,15.268,0,0,1-3.947.824,14.679,14.679,0,0,1-4.072-.249Z" transform="translate(-0.3 -44.463)" fill="#fff"/>
        <path id="Trazado_205" data-name="Trazado 205" d="M84.686,54.348c1.275,0,2.469-.023,3.663.006,1.335.035,1.9-.491,1.9-1.848V49.653c.628-.072.9.182.895.766-.008,1.2,0,2.4-.012,3.6-.012.816-.178.973-.983.977-1.294.006-2.586.025-3.879-.008-.568-.016-.756.155-.754.742.02,5.664.01,11.327.01,16.989,0,1.251-.041,1.3-1.277,1.3-1.11,0-2.218,0-3.327-.022a6,6,0,0,1-.916-.164l.012-.235c.429,0,.86.016,1.288,0a12.759,12.759,0,0,0,2.33-.168c.891-.209,1.048-.538,1.048-1.447q0-8.115,0-16.225Z" transform="translate(22.43 -47.938)" fill="#fff"/>
        <path id="Trazado_206" data-name="Trazado 206" d="M47.836,62.613c1.042,2,2.071,3.978,3.1,5.956.413.8.82,1.6,1.214,2.4s.045,1.5-.928,1.425c-1.308-.1-2.629-.018-3.945-.037a5.538,5.538,0,0,1-.934-.168l.037-.255c.558.029,1.116.094,1.672.076a11.6,11.6,0,0,0,2.185-.192,1.339,1.339,0,0,0,.908-2.12c-1.282-2.442-2.528-4.9-3.839-7.33-.325-.6-.168-.883.325-1.235a9.2,9.2,0,0,0,3.783-4.942,7.632,7.632,0,0,0-.094-4.084,3.579,3.579,0,0,1-.094-.4,2.7,2.7,0,0,1,0-.358c1.149.736,1.641,3.963.975,6.293C51.691,59.41,51,60.2,47.836,62.613Z" transform="translate(-9.822 -46.298)" fill="#fff"/>
        <path id="Trazado_207" data-name="Trazado 207" d="M68.414,66.65c.6.082,1.2.153,1.8.247,4.069.646,9.212-1.729,10.3-6.483a12.993,12.993,0,0,0,.014-2.947c0-.17-.035-.341-.053-.513l.256-.094a8.372,8.372,0,0,1,.656,1.609,7.253,7.253,0,0,1-5.079,8.6,11.862,11.862,0,0,1-7.722-.155,1,1,0,0,1-.211-.137Z" transform="translate(11.285 -41.022)" fill="#fff"/>
        <path id="Trazado_208" data-name="Trazado 208" d="M39.935,66.616c.8-.039,1.605-.045,2.4-.129a3.955,3.955,0,0,0,1.177-.36,1.392,1.392,0,0,0,.856-1.373c.025-2.285.082-4.57.125-6.853,0-.094.008-.186,0-.278-.014-.358.117-.64.507-.527a.731.731,0,0,1,.441.517c.008,2.31-.023,4.621-.045,6.931-.006.507,0,1.016-.033,1.521s-.272.838-.814.842c-1.363.008-2.725.012-4.088,0a2.374,2.374,0,0,1-.56-.149Z" transform="translate(-15.987 -40.82)" fill="#fff"/>
        <path id="Trazado_209" data-name="Trazado 209" d="M72.8,54.721c1.4-.681,1.954-2.015,2.6-3.281.088-.176.311-.415.448-.4a.736.736,0,0,1,.474.417,1.48,1.48,0,0,1,.129.86,4.31,4.31,0,0,1-1.862,2.647A1.291,1.291,0,0,1,72.8,54.721Z" transform="translate(15.523 -46.6)" fill="#fff"/>
        <path id="Trazado_210" data-name="Trazado 210" d="M70.206,53.6c-.323-.088-.488-.5-.425-.995.069-.535.515-.525.908-.507.421.02.84.084,1.367.139Z" transform="translate(12.62 -45.585)" fill="#fff"/>
        <path id="Trazado_211" data-name="Trazado 211" d="M55.186,61.273c-1.4-1.094-1.418-4.446-.125-6.408,1.369-2.079,5.048-3.336,6.951-2.324-2.138.39-4.114.991-5.545,2.733C55.017,57.038,54.908,59.078,55.186,61.273Z" transform="translate(-2.376 -45.502)" fill="#fff"/>
        <path id="Trazado_212" data-name="Trazado 212" d="M42.1,51.857c1.719.1,3.42-.213,5.083.2l0,.253H42.817v2.647H42.1Z" transform="translate(-13.889 -45.833)" fill="#fff"/>
        <path id="Trazado_213" data-name="Trazado 213" d="M31.579,55.129h-.717v-3.15a11.516,11.516,0,0,1,3.182.17l0,.18a15.27,15.27,0,0,1-1.652.161c-.689-.006-.869.311-.82.938C31.614,53.972,31.579,54.522,31.579,55.129Z" transform="translate(-24.649 -45.723)" fill="#fff"/>
        <path id="Trazado_214" data-name="Trazado 214" d="M93.216,50.448c0-1.255-.255-1.512-1.492-1.506-1.547.008-3.1.023-4.642.025-3.258,0-6.514,0-9.772.006-.95,0-1.132.2-1.136,1.138q0,1.457,0,2.913c0,.967.309,1.269,1.29,1.273,1.406,0,2.812,0,4.319,0v2.569q0,7.524,0,15.051c0,1.157.233,1.388,1.369,1.392.969,0,1.94,0,2.911,0,1.2,0,1.453-.255,1.453-1.461,0-5.6.01-11.189-.012-16.785,0-.6.143-.8.769-.779,1.245.049,2.494.02,3.742.012.9-.006,1.188-.3,1.2-1.212C93.222,52.2,93.218,51.325,93.216,50.448ZM84.5,71.17a1.037,1.037,0,0,1-.143.1,1.143,1.143,0,0,1-.348.047c-.047,0-.161-.255-.161-.255v-.161l.168-.094h.558Zm.666.8-.527-.384.6-1.576.194-.035a3.048,3.048,0,0,0,.078.572,6.171,6.171,0,0,0,.329.7Z" transform="translate(18.756 -48.607)" fill="#fff"/>
      </g>
      <rect id="Rect치ngulo_102" data-name="Rect치ngulo 102" width="56.756" height="0.998" rx="0.255" transform="translate(66.142 72.036)" fill="#018837"/>
    </g>
  </g>
</svg>
