<svg id="Grupo_26" data-name="Grupo 26" xmlns="http://www.w3.org/2000/svg" width="221.511" height="221.511" viewBox="0 0 221.511 221.511">
  <rect id="Rectángulo_98" data-name="Rectángulo 98" width="221.511" height="221.511" fill="#030202" opacity="0"/>
  <g id="Grupo_20" data-name="Grupo 20" transform="translate(36.04 45.982)">
    <path id="Trazado_48" data-name="Trazado 48" d="M26.843,71.422S56.354,107,18.448,138.52c12.769-4.988,33.518-5.986,45.886,14.562,2.993-11.77,34.315-68.734,103.543-62.7C160.1,86.25,143.34,62.82,158.3,39.222c-4.788,4.732-30.99,14.64-34.049-15.685C122.657,31.252,99.782,91.739,26.843,71.422Z" transform="translate(-18.448 -23.537)" fill="#179650"/>
    <path id="Trazado_49" data-name="Trazado 49" d="M35.686,60.419c4.38-6.041,12.323-8.951,19.618-8.076-.115,3.026-.258,6.009-.4,9.016a9.838,9.838,0,0,0-7.328-2.594c-2.444.332-5.427,1.842-5.7,4.591-.094,2.253,1.731,3.952,3.487,5.056a19.522,19.522,0,0,1,6.3,5.156,11.376,11.376,0,0,1,2.059,7.562,22.548,22.548,0,0,1-10.18,17.223,24.422,24.422,0,0,1-14.232,3.86c.457-3.825.963-7.633,1.442-11.462A9.358,9.358,0,0,0,43.6,88.643c1.455-2.043,1.891-5.1.264-7.176-1.438-1.9-3.665-2.884-5.775-3.862a8.827,8.827,0,0,1-4.9-6.33,15.286,15.286,0,0,1,2.493-10.856" transform="translate(-8.087 3.786)" fill="#fff"/>
    <path id="Trazado_50" data-name="Trazado 50" d="M86.639,37.906a5.21,5.21,0,0,1,4.31.41A4.838,4.838,0,0,1,92.9,42.1a11.836,11.836,0,0,1-2.11,7.133A22.741,22.741,0,0,1,82.511,56.1c-.522.27-.619-.209-.418-.428a18.153,18.153,0,0,0,4.833-11.661c.078-.858-.166-2.438-1.221-2.274-1.076.166-1.825,1.854-2.325,3.011A35.455,35.455,0,0,0,81.721,55.4a8.289,8.289,0,0,0,1.137,4.915,2.941,2.941,0,0,0,2.723,1.362,6.7,6.7,0,0,0,4-2.356,19.862,19.862,0,0,0,3.755-6.66c.428.332.832.668,1.237,1.006a21.655,21.655,0,0,1-6.955,11.919,11.49,11.49,0,0,1-7.6,3.032,6.51,6.51,0,0,1-5.3-3.026c-1.559-2.481-1.756-5.572-1.563-8.418a23.8,23.8,0,0,1,4.978-13.163,17.765,17.765,0,0,1,8.512-6.105" transform="translate(33.657 -10.096)" fill="#fff"/>
    <circle id="Elipse_11" data-name="Elipse 11" cx="7.151" cy="7.151" r="7.151" transform="translate(80.583 26.901)" fill="#f7cf26"/>
    <path id="Trazado_51" data-name="Trazado 51" d="M42.141,61.717v38.06a.085.085,0,0,0,.127.074l8.057-4.394a.089.089,0,0,0,.045-.076V62.109a.08.08,0,0,1,.035-.068c.41-.277,4.232-2.719,5.3,1.653,1.117,4.568.61,12.693-4.745,20.345a.083.083,0,0,0,.1.125c2.921-1.45,13.1-7,12.425-22.2,0-3.79-3.642-9.577-11.024-5.736-6.857,3.567-9.883,5.2-10.278,5.411A.085.085,0,0,0,42.141,61.717Z" transform="translate(4.146 6.433)" fill="#fff"/>
    <path id="Trazado_52" data-name="Trazado 52" d="M53.56,55.816v27.6l8.182-4.359V63.28s-.406-5.118,5.785-6.795v-8.1s-6.248.791-7.848,9.262V52.577Z" transform="translate(15.035 0.161)" fill="#fff"/>
    <path id="Trazado_53" data-name="Trazado 53" d="M61.191,50.255V77.709l8.169-4.464V45.88Z" transform="translate(22.312 -2.231)" fill="#fff"/>
    <path id="Trazado_54" data-name="Trazado 54" d="M65.743,53.13v5.1l3.184-1.762V79.142L77.24,74.87V52.11l3.792-2.1V45.126l-3.841,2.045V37.632l-4.441,2.407S72.4,48.613,65.743,53.13Z" transform="translate(26.653 -10.096)" fill="#fff"/>
    <g id="Grupo_18" data-name="Grupo 18" transform="translate(129.256 50.891)">
      <path id="Trazado_55" data-name="Trazado 55" d="M85.57,52.512v1.821h-.959V49.587H85.93a2.177,2.177,0,0,1,1.364.354,1.282,1.282,0,0,1,.443,1.069,1.3,1.3,0,0,1-.221.744,1.487,1.487,0,0,1-.621.512q1.02,1.6,1.33,2.067H87.16l-1.08-1.821Zm0-.819h.309a1.144,1.144,0,0,0,.672-.158.579.579,0,0,0,.217-.5.531.531,0,0,0-.221-.481,1.31,1.31,0,0,0-.686-.143H85.57Z" transform="translate(-84.611 -49.587)" fill="#fff"/>
    </g>
    <g id="Grupo_19" data-name="Grupo 19" transform="translate(126.855 49.198)">
      <path id="Trazado_56" data-name="Trazado 56" d="M87.447,56.853a4.066,4.066,0,1,1,4.065-4.065A4.07,4.07,0,0,1,87.447,56.853Zm0-7.234a3.168,3.168,0,1,0,3.167,3.169A3.172,3.172,0,0,0,87.447,49.619Z" transform="translate(-83.382 -48.72)" fill="#fff"/>
    </g>
  </g>
</svg>
